<?xml version="1.0" standalone="no"?>
<!DOCTYPE svg PUBLIC "-//W3C//DTD SVG 1.1//EN" "http://www.w3.org/Graphics/SVG/1.1/DTD/svg11.dtd" >
<svg xmlns="http://www.w3.org/2000/svg" xmlns:xlink="http://www.w3.org/1999/xlink" version="1.1">
<metadata>
Created by FontForge 20190801 at Tue Mar 31 07:22:19 2020
 By Jimmy Wärting
Copyright (c) 2013 by Lucas Sharp. All rights reserved.
</metadata>
<defs>
<font id="SharpsansSemiboldRegular" horiz-adv-x="564" >
  <font-face 
    font-family="Sharp sans Semi bold"
    font-weight="500"
    font-stretch="normal"
    units-per-em="1000"
    panose-1="0 0 0 0 0 0 0 0 0 0"
    ascent="800"
    descent="-200"
    x-height="500"
    cap-height="730"
    bbox="-72 -256 1113 1092"
    underline-thickness="0"
    underline-position="0"
    unicode-range="U+0020-0237"
  />
<missing-glyph horiz-adv-x="457" 
d="M20 675h417v-675h-417v675zM68 48h320v579h-320v-579z" />
    <glyph glyph-name=".notdef" horiz-adv-x="457" 
d="M20 675h417v-675h-417v675zM68 48h320v579h-320v-579z" />
    <glyph glyph-name=".notdef" horiz-adv-x="457" 
d="M20 675h417v-675h-417v675zM68 48h320v579h-320v-579z" />
    <glyph glyph-name="space" unicode=" " horiz-adv-x="248" 
 />
    <glyph glyph-name="exclam" unicode="!" horiz-adv-x="224" 
d="M142 193h-59c-16 123 -24 263 -24 420v0v117h107v-117c0 -157 -8 -297 -24 -420v0zM166 0h-107v137h107v-137z" />
    <glyph glyph-name="quotedbl" unicode="&#x22;" horiz-adv-x="313" 
d="M106 500h-31c-19 59 -28 107 -28 146v0v84h88v-84c0 -17 -3 -42 -10 -74s-14 -56 -19 -72v0zM238 500h-31c-19 59 -28 107 -28 146v0v84h88v-84c0 -17 -3 -42 -10 -74s-14 -56 -19 -72v0z" />
    <glyph glyph-name="numbersign" unicode="#" horiz-adv-x="817" 
d="M610 0h-109v171h-189v-171h-108v171h-169v104h169v189h-169v104h169v162h108v-162h189v162h109v-162h172v-104h-172v-189h172v-104h-172v-171zM501 464h-189v-189h189v189z" />
    <glyph glyph-name="dollar" unicode="$" horiz-adv-x="588" 
d="M556 209v0c0 -52 -18 -98 -55 -139s-86 -66 -147 -76v0v-114h-108v114c-88 11 -162 52 -222 122v0l93 78c33 -51 76 -83 131 -96v0v245c-27 9 -51 18 -71 27s-40 22 -61 37s-36 34 -47 57s-17 48 -17 77v0c0 51 18 94 53 130s82 58 141 66v0v103h108v-105
c73 -11 135 -46 185 -104v0l-89 -67c-24 37 -57 61 -98 73v0v-217c29 -9 53 -19 74 -28c20 -10 41 -23 63 -39c22 -17 39 -37 50 -61s17 -52 17 -83zM446 209v0c0 44 -31 78 -94 101v0v-213c29 8 52 22 69 42s25 43 25 70zM161 544v0c0 -22 8 -40 23 -54s36 -26 64 -37v0
v187c-27 -6 -49 -17 -64 -34s-23 -38 -23 -62z" />
    <glyph glyph-name="percent" unicode="%" horiz-adv-x="840" 
d="M159 626c-16 -17 -24 -37 -24 -60s8 -43 24 -59c16 -17 35 -25 58 -25s42 8 58 25c16 16 24 36 24 59s-8 43 -24 60c-16 16 -35 24 -58 24s-42 -8 -58 -24zM455 164v0c0 48 17 89 51 123c33 34 74 51 123 51v0c48 0 89 -17 123 -51s51 -75 51 -123v0
c0 -49 -17 -90 -51 -124s-75 -51 -123 -51v0c-49 0 -90 17 -123 51c-34 34 -51 75 -51 124zM178 0h-137l627 730h137zM547 164v0c0 -23 8 -43 24 -59c16 -17 35 -25 58 -25s42 8 58 25c16 16 24 36 24 59v0c0 23 -8 42 -24 59c-16 16 -35 24 -58 24s-42 -8 -58 -24
c-16 -17 -24 -36 -24 -59zM43 566v0c0 49 17 90 51 124c34 33 75 50 123 50s89 -17 123 -50c34 -34 51 -75 51 -124v0c0 -48 -17 -89 -51 -123s-75 -51 -123 -51s-89 17 -123 51s-51 75 -51 123z" />
    <glyph glyph-name="ampersand" unicode="&#x26;" horiz-adv-x="754" 
d="M736 0h-148l-63 63c-65 -49 -133 -74 -206 -74v0c-50 0 -94 7 -132 21c-39 14 -69 33 -90 57c-21 23 -37 49 -48 76s-16 55 -16 84v0c0 46 12 87 35 123s55 65 95 88v0c-25 39 -38 80 -38 123v0c0 51 19 93 56 128c37 34 84 51 143 51v0c94 0 160 -39 197 -116v0
l-100 -45c-20 43 -52 65 -95 65v0c-26 0 -47 -8 -63 -24c-17 -16 -25 -36 -25 -59v0c0 -28 8 -52 23 -73s47 -58 98 -109v0l174 -175c37 49 60 102 71 161v0h-121v102h228v-48c0 -46 -10 -94 -29 -144c-20 -50 -47 -96 -81 -138v0zM318 85v0c49 0 95 15 138 45v0l-186 188
l-45 45c-56 -33 -84 -78 -84 -135v0c0 -39 16 -72 47 -100c31 -29 74 -43 130 -43z" />
    <glyph glyph-name="quotesingle" unicode="'" horiz-adv-x="181" 
d="M106 500v0h-31c-19 59 -28 107 -28 146v0v84h88v-84c0 -17 -3 -42 -10 -74s-14 -56 -19 -72z" />
    <glyph glyph-name="parenleft" unicode="(" horiz-adv-x="409" 
d="M382 -163l-69 -88c-185 127 -278 294 -278 501v0c0 110 24 205 71 284s114 149 200 212v0l73 -80c-153 -106 -230 -244 -230 -415v0c0 -175 78 -313 233 -414v0z" />
    <glyph glyph-name="parenright" unicode=")" horiz-adv-x="409" 
d="M260 249v0c0 172 -77 310 -230 415v0l73 81c85 -63 152 -134 200 -213c47 -79 71 -174 71 -283v0c0 -207 -93 -374 -278 -501v0l-69 87c155 102 233 240 233 414z" />
    <glyph glyph-name="asterisk" unicode="*" horiz-adv-x="420" 
d="M387 506l-49 -81l-102 84l21 -132h-94l20 132l-104 -84l-46 82l124 47l-124 49l48 81l103 -85l-21 132h94l-21 -132l104 84l47 -82l-126 -47z" />
    <glyph glyph-name="plus" unicode="+" horiz-adv-x="457" 
d="M184 319h-140v92h140v138h90v-138h140v-92h-140v-140h-90v140z" />
    <glyph glyph-name="comma" unicode="," horiz-adv-x="205" 
d="M99 -117h-74l38 204h102z" />
    <glyph glyph-name="hyphen" unicode="-" horiz-adv-x="457" 
d="M414 206h-370v93h370v-93z" />
    <glyph glyph-name="period" unicode="." horiz-adv-x="205" 
d="M156 0h-107v137h107v-137z" />
    <glyph glyph-name="slash" unicode="/" horiz-adv-x="497" 
d="M134 0h-115l346 730h115z" />
    <glyph glyph-name="zero" unicode="0" horiz-adv-x="588" 
d="M196 131c22 -24 54 -36 97 -36s76 12 99 37c23 24 34 56 34 96v0v269c0 43 -11 77 -34 102s-55 37 -97 37v0c-43 0 -75 -13 -98 -38s-35 -59 -35 -101v0v-268c0 -41 11 -74 34 -98zM294 -10v0c-77 0 -136 21 -177 64c-42 43 -63 100 -63 171v0v274c0 69 22 127 67 173
c45 45 102 68 173 68v0c72 0 130 -23 175 -68c44 -46 66 -103 66 -172v0v-275c0 -72 -21 -129 -64 -171c-43 -43 -102 -64 -177 -64z" />
    <glyph glyph-name="one" unicode="1" horiz-adv-x="588" 
d="M545 0h-501v104h195v445c-11 -15 -27 -28 -50 -37c-23 -10 -46 -15 -69 -15v0h-11v113h5c44 0 77 12 98 37s31 52 31 83v0h104v-626h198v-104z" />
    <glyph glyph-name="two" unicode="2" horiz-adv-x="588" 
d="M539 0h-486v104c0 29 6 56 17 81s28 48 51 71s43 41 62 56c19 14 44 31 75 52v0c4 3 13 9 27 18s23 16 28 19s13 9 25 18c11 8 19 14 24 19c4 4 10 10 19 18c9 7 15 14 18 20c3 5 7 12 12 19s8 14 10 21c1 7 2 14 2 21v0c0 32 -11 58 -34 78s-55 30 -96 30v0
c-69 0 -121 -35 -156 -105v0l-94 48c23 47 57 84 100 111s92 41 149 41v0c73 0 131 -19 176 -58c44 -39 66 -88 66 -146v0c0 -22 -4 -43 -13 -64s-18 -38 -29 -52c-11 -15 -27 -31 -48 -49s-38 -31 -51 -40s-33 -23 -60 -40v0c-30 -19 -52 -34 -65 -44
c-14 -10 -31 -23 -50 -40c-20 -17 -34 -34 -42 -50c-9 -17 -13 -34 -13 -53v0h376v-104z" />
    <glyph glyph-name="three" unicode="3" horiz-adv-x="588" 
d="M293 -10v0c-59 0 -110 10 -151 30c-42 19 -79 50 -111 92v0l91 69c41 -61 98 -92 171 -92v0c43 0 78 11 105 34s40 52 40 87v0c0 35 -13 63 -39 84s-61 31 -104 31v0h-84v101h83c42 0 75 10 98 31s35 48 35 81v0c0 31 -12 56 -36 77c-24 20 -57 30 -99 30v0
c-72 0 -125 -29 -158 -86v0l-92 53c25 40 59 71 103 94c43 23 93 34 148 34v0c73 0 131 -18 175 -55c43 -37 65 -85 65 -144v0c0 -73 -31 -128 -94 -163v0c71 -35 107 -91 107 -170v0c0 -63 -23 -115 -68 -156s-107 -62 -185 -62z" />
    <glyph glyph-name="four" unicode="4" horiz-adv-x="588" 
d="M456 0h-106v158h-309v100l300 472h115v-473h91v-99h-91v-158zM350 563l-194 -306h194v306z" />
    <glyph glyph-name="five" unicode="5" horiz-adv-x="588" 
d="M295 -10v0c-60 0 -112 12 -155 37c-44 25 -77 58 -100 100v0l104 62c30 -65 81 -98 152 -98v0c41 0 75 14 103 42c27 27 41 63 41 107v0c0 45 -14 82 -42 110c-29 28 -64 42 -106 42v0c-61 0 -108 -25 -141 -74v0l-101 45l54 367h405v-102h-317l-28 -179
c39 28 85 42 138 42v0c70 0 129 -22 177 -65c47 -43 71 -106 71 -187v0c0 -73 -24 -132 -71 -179c-48 -47 -109 -70 -184 -70z" />
    <glyph glyph-name="six" unicode="6" horiz-adv-x="588" 
d="M295 -10v0c-74 0 -135 24 -183 72c-49 47 -73 106 -73 176v0c0 64 18 122 54 175v0l202 317h129l-163 -251c20 5 38 7 53 7v0c67 0 123 -23 168 -70s68 -107 68 -178s-24 -130 -73 -177s-109 -71 -182 -71zM293 89v0c41 0 77 15 106 45c29 29 44 65 44 106
s-15 77 -44 107c-29 29 -65 44 -106 44v0c-41 0 -75 -15 -104 -44c-29 -30 -44 -66 -44 -107s15 -77 44 -106c29 -30 63 -45 104 -45z" />
    <glyph glyph-name="seven" unicode="7" horiz-adv-x="588" 
d="M249 0h-116l295 626h-384v104h501v-94z" />
    <glyph glyph-name="eight" unicode="8" horiz-adv-x="588" 
d="M294 -10v0c-81 0 -143 20 -187 61c-44 40 -66 94 -66 162v0c0 76 34 134 101 175v0c-52 36 -78 86 -78 151v0c0 60 21 109 64 146c42 37 98 55 168 55v0c69 0 125 -19 168 -56s64 -86 64 -145v0c0 -63 -27 -114 -82 -151v0c68 -41 102 -100 102 -175v0
c0 -67 -23 -121 -68 -162s-107 -61 -186 -61zM294 87v0c47 0 83 12 110 36s40 54 40 90s-13 66 -39 90c-26 23 -63 35 -110 35v0c-47 0 -83 -12 -110 -36s-40 -54 -40 -89v0c0 -36 13 -66 39 -90s63 -36 110 -36zM198 461c22 -20 54 -30 97 -30s76 10 99 30s34 46 34 78v0
c0 31 -12 56 -35 77s-55 31 -96 31v0c-41 0 -74 -10 -97 -31c-24 -21 -36 -46 -36 -77v0c0 -32 11 -58 34 -78z" />
    <glyph glyph-name="nine" unicode="9" horiz-adv-x="588" 
d="M495 317l-201 -317h-129l162 250c-17 -4 -34 -6 -53 -6v0c-66 0 -122 24 -167 71s-68 106 -68 177s24 131 73 178s109 70 182 70v0c73 0 134 -24 183 -71c49 -48 73 -107 73 -176v0c0 -64 -18 -123 -55 -176v0zM296 340v0c41 0 76 15 105 45c29 29 43 65 43 106
s-14 77 -43 107c-29 29 -64 44 -105 44v0c-41 0 -77 -15 -106 -44c-30 -30 -45 -66 -45 -107s15 -77 45 -106c29 -30 65 -45 106 -45z" />
    <glyph glyph-name="colon" unicode=":" horiz-adv-x="204" 
d="M156 0h-107v137h107v-137zM156 363h-107v137h107v-137z" />
    <glyph glyph-name="semicolon" unicode=";" horiz-adv-x="205" 
d="M156 363h-107v137h107v-137zM99 -117h-74l38 204h102z" />
    <glyph glyph-name="less" unicode="&#x3c;" horiz-adv-x="457" 
d="M414 276v-95l-370 138v92l370 136v-95l-257 -87z" />
    <glyph glyph-name="equal" unicode="=" horiz-adv-x="457" 
d="M414 400h-370v92h370v-92zM414 235h-370v92h370v-92z" />
    <glyph glyph-name="greater" unicode="&#x3e;" horiz-adv-x="457" 
d="M414 319l-370 -138v95l256 89l-256 87v95l370 -136v-92z" />
    <glyph glyph-name="question" unicode="?" horiz-adv-x="531" 
d="M298 189h-97v10c0 39 4 73 13 102s20 52 33 68s28 31 43 46c15 14 29 26 42 36s24 23 33 39s13 34 13 54v0c0 29 -11 54 -32 73c-22 19 -50 29 -84 29v0c-58 0 -99 -30 -124 -89v0l-99 37c16 44 43 79 82 106s86 40 143 40v0c65 0 119 -18 161 -54c42 -37 63 -84 63 -143
v0c0 -29 -5 -55 -14 -77c-9 -23 -21 -40 -35 -52c-14 -13 -29 -26 -46 -39c-17 -14 -32 -27 -46 -40s-26 -32 -35 -55s-14 -50 -14 -81v0v-10zM303 0h-107v137h107v-137z" />
    <glyph glyph-name="at" unicode="@" horiz-adv-x="816" 
d="M408 -125v0c-103 0 -191 37 -264 110s-109 161 -109 265v0c0 103 37 192 111 265c73 73 162 110 265 110v0c108 0 197 -34 266 -101s104 -146 104 -236v0c0 -59 -15 -109 -44 -149s-69 -60 -120 -60v0c-55 0 -94 18 -117 55v0c-28 -37 -71 -56 -128 -56v0
c-45 0 -83 17 -115 50c-33 33 -46 76 -41 131v0c7 57 28 101 64 132c35 31 74 47 116 47v0c45 0 80 -14 104 -43v0l3 37h93l-20 -181c-6 -55 10 -82 48 -82v0c21 0 37 11 49 33c12 21 18 50 18 85v0c0 66 -26 124 -78 175c-53 50 -120 75 -202 75v0c-79 0 -146 -28 -201 -84
s-83 -124 -83 -203s27 -147 82 -203c54 -56 120 -84 199 -84v0c82 0 151 30 207 89v0l68 -57c-33 -36 -74 -65 -122 -87s-99 -33 -153 -33zM330 193c15 -19 36 -29 62 -29s48 9 65 28s27 41 30 68v0c3 26 -2 48 -16 67c-15 19 -35 28 -60 28s-48 -9 -67 -26
c-20 -18 -31 -41 -33 -68v0c-3 -27 3 -49 19 -68z" />
    <glyph glyph-name="A" unicode="A" horiz-adv-x="696" 
d="M138 0h-114l268 730h112l268 -730h-113l-57 156h-308zM464 260l-116 320l-116 -320h232z" />
    <glyph glyph-name="B" unicode="B" horiz-adv-x="601" 
d="M320 0h-264v730h247c75 0 133 -18 176 -53s64 -84 64 -146v0c0 -67 -29 -117 -86 -149v0c73 -31 109 -88 109 -171v0c0 -67 -22 -118 -66 -155c-45 -37 -105 -56 -180 -56v0zM315 325v0h-150v-225h155c43 0 76 10 101 31c24 20 36 47 36 82v0c0 75 -47 112 -142 112z
M303 631v0h-138v-205h142c42 0 74 10 95 29s32 44 32 76s-11 57 -33 74c-23 17 -55 26 -98 26z" />
    <glyph glyph-name="C" unicode="C" horiz-adv-x="761" 
d="M410 -10v0c-107 0 -196 36 -267 109c-72 73 -108 161 -108 266v0c0 106 36 195 109 267s161 108 266 108v0c68 0 131 -17 188 -50s102 -78 135 -134v0l-95 -59c-23 43 -54 77 -93 102c-39 24 -84 36 -135 36v0c-75 0 -138 -26 -189 -78c-51 -53 -77 -117 -77 -192v0
c0 -75 26 -138 77 -190s113 -78 188 -78v0c55 0 102 14 143 41c40 27 71 63 93 109v0l98 -52c-32 -63 -77 -112 -136 -149s-124 -56 -197 -56z" />
    <glyph glyph-name="D" unicode="D" horiz-adv-x="676" 
d="M262 0h-206v730h202c116 0 209 -34 279 -103c69 -69 104 -156 104 -262v0c0 -105 -36 -192 -107 -261c-72 -69 -163 -104 -272 -104v0zM247 630v0h-82v-529h86c83 0 150 25 202 75s78 113 78 189v0c0 79 -25 143 -75 192s-120 73 -209 73z" />
    <glyph glyph-name="E" unicode="E" horiz-adv-x="540" 
d="M494 0h-438v730h438v-103h-329v-209h329v-103h-329v-211h329v-104z" />
    <glyph glyph-name="F" unicode="F" horiz-adv-x="517" 
d="M165 0h-109v730h413v-103h-304v-209h304v-103h-304v-315z" />
    <glyph glyph-name="G" unicode="G" horiz-adv-x="811" 
d="M414 -10v0c-109 0 -199 37 -271 110s-108 162 -108 265v0c0 105 36 194 108 267c71 72 161 108 270 108v0c71 0 136 -17 194 -51c57 -34 102 -80 134 -137v0l-95 -57c-24 45 -56 79 -95 104c-40 25 -86 37 -138 37v0c-78 0 -142 -26 -193 -79s-76 -117 -76 -192
s26 -139 77 -191c51 -53 116 -79 193 -79v0c67 0 123 19 166 56s70 85 82 146v0h-262v103h376v-39c0 -103 -33 -191 -99 -263s-154 -108 -263 -108z" />
    <glyph glyph-name="H" unicode="H" horiz-adv-x="659" 
d="M603 0h-108v315h-330v-315h-109v730h109v-311h330v311h108v-730z" />
    <glyph glyph-name="I" unicode="I" horiz-adv-x="235" 
d="M172 0h-109v730h109v-730z" />
    <glyph glyph-name="J" unicode="J" horiz-adv-x="486" 
d="M233 -10v0c-50 0 -93 12 -130 37s-63 58 -77 99v0l104 45c8 -24 21 -43 39 -58c17 -15 38 -22 62 -22v0c29 0 52 10 69 30c16 20 24 47 24 80v0v529h108v-522c0 -69 -18 -122 -53 -160c-35 -39 -84 -58 -146 -58z" />
    <glyph glyph-name="K" unicode="K" horiz-adv-x="631" 
d="M614 0h-124l-219 367l-106 -127v-240h-109v730h109v-348l290 348h133l-240 -288z" />
    <glyph glyph-name="L" unicode="L" horiz-adv-x="506" 
d="M460 0h-404v730h109v-626h295v-104z" />
    <glyph glyph-name="M" unicode="M" horiz-adv-x="827" 
d="M165 0h-109v730h108l248 -343l256 343h103v-730h-108v556l-253 -341l-245 333v-548z" />
    <glyph glyph-name="N" unicode="N" horiz-adv-x="713" 
d="M165 0h-109v730h123l370 -552v552h108v-730h-115l-377 561v-561z" />
    <glyph glyph-name="O" unicode="O" horiz-adv-x="819" 
d="M409 -10v0c-103 0 -191 37 -264 110s-110 162 -110 265s37 192 110 265s161 110 264 110v0c104 0 193 -37 266 -110s109 -162 109 -265s-36 -192 -109 -265s-162 -110 -266 -110zM409 96v0c75 0 138 26 189 79c51 52 77 115 77 190s-26 138 -77 191s-114 79 -189 79v0
c-74 0 -137 -26 -188 -79s-77 -116 -77 -191s26 -138 77 -190c51 -53 114 -79 188 -79z" />
    <glyph glyph-name="P" unicode="P" horiz-adv-x="599" 
d="M165 0h-109v730h240c77 0 140 -24 190 -73c49 -49 74 -110 74 -183s-25 -133 -74 -182c-50 -49 -114 -74 -191 -74v0h-130v-218zM288 630v0h-123v-311h123c49 0 89 15 119 44c29 29 44 66 44 111s-15 82 -44 112c-30 29 -70 44 -119 44z" />
    <glyph glyph-name="Q" unicode="Q" horiz-adv-x="819" 
d="M784 0h-135l-267 339h131l107 -135c37 49 55 102 55 161v0c0 75 -26 138 -77 191s-114 79 -189 79v0c-74 0 -137 -26 -188 -79s-77 -116 -77 -191s26 -138 77 -190c51 -53 114 -79 188 -79v0c34 0 66 6 97 19v0l68 -86c-52 -26 -107 -39 -165 -39v0
c-103 0 -191 37 -264 110s-110 162 -110 265s37 192 110 265s161 110 264 110v0c104 0 193 -37 266 -110s109 -162 109 -265v0c0 -92 -31 -174 -94 -247v0z" />
    <glyph glyph-name="R" unicode="R" horiz-adv-x="584" 
d="M165 0h-109v730h227c76 0 138 -23 186 -68s72 -102 72 -170v0c0 -51 -14 -96 -41 -137c-28 -41 -67 -69 -117 -84v0l174 -271h-125l-220 348h59c51 0 90 15 119 44c28 29 42 63 42 100v0c0 42 -14 75 -41 100s-67 37 -119 37v0h-107v-629z" />
    <glyph glyph-name="S" unicode="S" horiz-adv-x="563" 
d="M285 -10v0c-113 0 -203 44 -272 133v0l96 75c44 -71 102 -106 175 -106v0c39 0 71 11 96 34c24 22 36 50 36 83v0c0 15 -3 28 -10 40s-15 22 -22 29c-8 7 -21 15 -39 23s-32 14 -42 18c-10 3 -27 9 -51 16v0c-25 8 -45 15 -60 21c-16 6 -34 15 -54 27
c-21 11 -37 24 -48 37c-12 13 -22 30 -31 51s-13 44 -13 70v0c0 56 22 103 67 142c45 38 100 57 167 57v0c95 0 174 -36 236 -108v0l-89 -66c-33 52 -82 78 -147 78v0c-37 0 -66 -9 -88 -28c-23 -19 -34 -44 -34 -73v0c0 -13 3 -26 10 -37s14 -20 21 -27s20 -14 39 -22
c19 -9 32 -14 41 -17c8 -3 25 -9 50 -18v0c31 -11 57 -20 77 -29c19 -9 41 -22 64 -38c23 -17 40 -37 51 -61c11 -25 17 -53 17 -85v0c0 -59 -22 -110 -67 -153c-45 -44 -103 -66 -176 -66z" />
    <glyph glyph-name="T" unicode="T" horiz-adv-x="593" 
d="M351 0h-108v628h-207v102h522v-102h-207v-628z" />
    <glyph glyph-name="U" unicode="U" horiz-adv-x="620" 
d="M310 -10v0c-75 0 -137 23 -184 70c-48 47 -72 109 -72 186v0v484h109v-491c0 -41 14 -75 42 -104s63 -43 104 -43v0c42 0 77 14 106 43s43 63 43 104v0v491h108v-484c0 -77 -24 -139 -72 -186s-109 -70 -184 -70z" />
    <glyph glyph-name="V" unicode="V" horiz-adv-x="668" 
d="M389 0h-110l-255 730h113l197 -569l197 569h113z" />
    <glyph glyph-name="W" unicode="W" horiz-adv-x="1045" 
d="M346 0h-111l-210 730h114l155 -559l176 559h106l175 -560l159 560h110l-215 -730h-108l-175 561z" />
    <glyph glyph-name="X" unicode="X" horiz-adv-x="642" 
d="M621 0h-122l-178 280l-177 -280h-122l235 371l-225 359h122l168 -264l167 264h122l-226 -356z" />
    <glyph glyph-name="Y" unicode="Y" horiz-adv-x="624" 
d="M366 0h-108v346l-237 384h120l171 -280l172 280h120l-238 -385v-345z" />
    <glyph glyph-name="Z" unicode="Z" horiz-adv-x="578" 
d="M531 0h-483v100l355 527h-344v103h472v-99l-356 -527h356v-104z" />
    <glyph glyph-name="bracketleft" unicode="[" horiz-adv-x="360" 
d="M317 -230h-273v960h273v-103h-165v-754h165v-103z" />
    <glyph glyph-name="backslash" unicode="\" horiz-adv-x="497" 
d="M480 0h-115l-346 730h115z" />
    <glyph glyph-name="bracketright" unicode="]" horiz-adv-x="360" 
d="M317 -230h-273v103h164v754h-164v103h273v-960z" />
    <glyph glyph-name="asciicircum" unicode="^" horiz-adv-x="485" 
d="M177 541h-92l120 169h74l121 -169h-91l-67 96z" />
    <glyph glyph-name="underscore" unicode="_" horiz-adv-x="507" 
d="M464 -102h-420v92h420v-92z" />
    <glyph glyph-name="grave" unicode="`" horiz-adv-x="485" 
d="M348 554h-82l-148 166h114z" />
    <glyph glyph-name="a" unicode="a" horiz-adv-x="608" 
d="M283 -10v0c-67 0 -125 24 -174 73c-50 48 -75 110 -75 187v0c0 77 25 140 74 188s108 72 176 72v0c33 0 64 -7 94 -20c29 -13 53 -32 72 -55v0v65h107v-500h-107v69c-19 -25 -44 -44 -73 -58c-30 -14 -61 -21 -94 -21zM298 88v0c45 0 83 16 113 48c30 31 45 70 45 115
s-15 84 -45 115s-68 47 -113 47v0c-45 0 -82 -16 -112 -47c-31 -31 -46 -70 -46 -115s15 -84 46 -115c30 -32 67 -48 112 -48z" />
    <glyph glyph-name="b" unicode="b" horiz-adv-x="605" 
d="M325 -10v0c-34 0 -66 7 -95 21c-30 13 -54 32 -73 57v0v-68h-105v730h106v-297c19 24 43 43 72 57c29 13 61 20 94 20v0c68 0 127 -24 176 -72s73 -111 73 -188v0c0 -77 -25 -139 -74 -187c-49 -49 -107 -73 -174 -73zM197 136c30 -32 67 -48 112 -48s82 16 113 48
c30 31 45 70 45 115s-15 84 -45 115c-31 31 -68 47 -113 47s-82 -16 -112 -47c-30 -32 -45 -70 -45 -115v0c0 -45 15 -84 45 -115z" />
    <glyph glyph-name="c" unicode="c" horiz-adv-x="561" 
d="M295 -10v0c-73 0 -135 25 -185 76c-51 50 -76 111 -76 184v0c0 73 25 135 76 185c50 50 112 75 185 75v0c55 0 103 -14 145 -42s73 -65 92 -111v0l-96 -41c-13 29 -31 52 -56 69s-53 25 -85 25v0c-44 0 -81 -15 -111 -46s-45 -69 -45 -114s15 -82 46 -113
c30 -31 67 -47 112 -47v0c33 0 61 9 86 27s43 42 55 71v0l97 -41c-21 -48 -52 -86 -93 -114c-41 -29 -90 -43 -147 -43z" />
    <glyph glyph-name="d" unicode="d" horiz-adv-x="607" 
d="M283 -10v0c-67 0 -125 24 -174 73c-50 48 -75 110 -75 187v0c0 77 25 140 74 188s108 72 176 72v0c33 0 64 -7 94 -20c29 -13 53 -32 72 -55v0v295h106v-730h-106v69c-19 -25 -44 -44 -73 -58c-30 -14 -61 -21 -94 -21zM298 88v0c45 0 83 16 113 48c30 31 45 70 45 115
s-15 84 -45 115s-68 47 -113 47v0c-45 0 -82 -16 -112 -47c-31 -31 -46 -70 -46 -115s15 -84 46 -115c30 -32 67 -48 112 -48z" />
    <glyph glyph-name="e" unicode="e" horiz-adv-x="586" 
d="M298 -10v0c-78 0 -141 25 -190 74s-74 111 -74 184s25 135 75 186s112 76 185 76v0c74 0 135 -24 184 -72s73 -109 73 -183v0v-42h-414c7 -39 25 -70 54 -93c28 -23 64 -35 107 -35v0c33 0 63 8 88 24s45 38 58 66v0l88 -49c-49 -91 -127 -136 -234 -136zM294 416v0
c-37 0 -69 -10 -96 -31s-46 -48 -56 -81v0h300c-8 36 -25 64 -51 83s-58 29 -97 29z" />
    <glyph glyph-name="f" unicode="f" horiz-adv-x="359" 
d="M114 404h-85v96h85v26c0 78 15 132 44 161s82 43 161 43v0h9v-99c-47 0 -76 -6 -88 -18c-12 -13 -18 -42 -18 -88v0v-25h106v-96h-106v-404h-108v404z" />
    <glyph glyph-name="g" unicode="g" horiz-adv-x="609" 
d="M283 -10v0c-67 0 -125 24 -174 73c-50 48 -75 110 -75 187v0c0 77 25 140 74 188s108 72 176 72v0c33 0 64 -7 93 -21s54 -33 73 -57v0v68h107v-488c0 -75 -22 -137 -67 -184s-107 -71 -185 -71v0c-60 0 -111 13 -154 39c-43 25 -74 59 -94 102v0l99 47
c27 -60 77 -90 149 -90v0c45 0 80 15 107 44c26 29 39 65 39 109v0v63c-19 -25 -44 -45 -74 -59c-30 -15 -61 -22 -94 -22zM298 88v0c45 0 83 16 113 48c30 31 45 70 45 115s-15 84 -45 115s-68 47 -113 47v0c-45 0 -82 -16 -112 -47c-31 -31 -46 -70 -46 -115
s15 -84 46 -115c30 -32 67 -48 112 -48z" />
    <glyph glyph-name="h" unicode="h" horiz-adv-x="565" 
d="M159 0h-107v730h106v-293c37 49 89 73 154 73v0c63 0 113 -19 149 -58s54 -92 54 -160v0v-292h-109v282c0 43 -10 76 -30 100c-21 23 -51 35 -91 35v0c-37 0 -67 -13 -90 -38c-24 -26 -36 -61 -36 -104v0v-275z" />
    <glyph glyph-name="i" unicode="i" horiz-adv-x="210" 
d="M159 0h-108v500h108v-500zM159 569h-108v140h108v-140z" />
    <glyph glyph-name="j" unicode="j" horiz-adv-x="210" 
d="M-40 -230h-16v101c46 0 75 6 88 19c13 12 19 40 19 85v0v525h108v-526c0 -77 -14 -130 -43 -159c-29 -30 -81 -45 -156 -45v0zM159 569h-108v140h108v-140z" />
    <glyph glyph-name="k" unicode="k" horiz-adv-x="539" 
d="M517 0h-120l-155 222l-84 -92v-130h-106v730h106v-478l225 248h129l-195 -214z" />
    <glyph glyph-name="l" unicode="l" horiz-adv-x="211" 
d="M159 0h-107v730h107v-730z" />
    <glyph glyph-name="m" unicode="m" horiz-adv-x="895" 
d="M158 0h-107v500h106v-60c34 47 83 70 147 70v0c79 0 134 -30 165 -90v0c37 60 94 90 169 90v0c67 0 118 -19 154 -56c35 -37 53 -89 53 -154v0v-300h-109v293c0 38 -10 68 -30 91c-21 22 -49 33 -86 33v0c-35 0 -63 -12 -85 -35c-23 -24 -34 -57 -34 -100v0v-282h-108
v298c0 37 -10 66 -29 87c-20 21 -48 32 -84 32v0c-37 0 -66 -12 -88 -36c-23 -24 -34 -58 -34 -103v0v-278z" />
    <glyph glyph-name="n" unicode="n" 
d="M158 0h-107v500h106v-65c37 50 88 75 154 75v0c63 0 113 -19 149 -58s54 -92 54 -160v0v-292h-108v283c0 42 -10 75 -31 99c-21 23 -51 35 -90 35v0c-37 0 -67 -13 -91 -38c-24 -26 -36 -61 -36 -104v0v-275z" />
    <glyph glyph-name="o" unicode="o" horiz-adv-x="587" 
d="M477 66c-51 -51 -112 -76 -184 -76s-133 25 -183 76c-51 50 -76 111 -76 184s25 134 76 185c50 50 111 75 183 75s133 -25 184 -75c51 -51 76 -112 76 -185s-25 -134 -76 -184zM185 137c29 -31 65 -47 108 -47s79 16 109 47s45 69 45 113s-15 82 -45 113s-66 47 -109 47
s-79 -16 -108 -47c-30 -31 -45 -69 -45 -113s15 -82 45 -113z" />
    <glyph glyph-name="p" unicode="p" horiz-adv-x="605" 
d="M325 -10v0c-75 0 -131 24 -168 72v0v-292h-106v730h106v-70c19 25 43 44 73 59c29 14 61 21 94 21v0c68 0 127 -24 176 -72s73 -111 73 -188v0c0 -77 -25 -139 -74 -187c-50 -49 -108 -73 -174 -73zM309 88v0c45 0 82 16 113 48c30 31 45 70 45 115s-15 84 -45 115
c-31 31 -68 47 -113 47v0c-45 0 -83 -16 -113 -47s-45 -70 -45 -115s15 -84 45 -115c30 -32 68 -48 113 -48z" />
    <glyph glyph-name="q" unicode="q" horiz-adv-x="607" 
d="M283 -10v0c-67 0 -125 24 -174 73c-50 48 -75 110 -75 187v0c0 77 25 140 74 188s108 72 176 72v0c33 0 64 -7 93 -21s54 -33 73 -57v0v68h106v-730h-106v293c-38 -49 -94 -73 -167 -73zM298 88v0c45 0 83 16 113 48c30 31 45 70 45 115s-15 84 -45 115s-68 47 -113 47v0
c-45 0 -82 -16 -112 -47c-31 -31 -46 -70 -46 -115s15 -84 46 -115c30 -32 67 -48 112 -48z" />
    <glyph glyph-name="r" unicode="r" horiz-adv-x="390" 
d="M159 0h-108v500h107v-77c27 51 73 77 138 77v0h59v-102h-75c-43 0 -74 -12 -93 -35c-19 -24 -28 -62 -28 -115v0v-248z" />
    <glyph glyph-name="s" unicode="s" horiz-adv-x="471" 
d="M235 -10v0c-102 0 -175 39 -219 116v0l96 50c29 -49 71 -73 128 -73v0c29 0 51 6 67 19s24 28 24 47v0c0 25 -36 44 -109 59v0c-5 1 -9 2 -12 3v0c-20 4 -37 8 -51 13c-14 4 -29 10 -46 18c-17 7 -30 16 -40 26s-18 23 -25 39c-7 15 -11 33 -11 53v0c0 41 18 77 54 107
s82 45 139 44v0c92 0 159 -32 201 -97v0l-89 -49c-25 38 -62 57 -112 57v0c-27 0 -48 -6 -63 -17c-15 -12 -23 -26 -23 -43v0c0 -9 2 -16 7 -22s14 -11 27 -16s24 -9 34 -12s27 -7 50 -12v0c25 -5 46 -11 63 -16c17 -6 35 -14 54 -25s34 -26 44 -44c9 -18 14 -39 14 -64v0
c0 -40 -17 -77 -52 -111s-85 -51 -150 -50z" />
    <glyph glyph-name="t" unicode="t" horiz-adv-x="367" 
d="M115 404h-85v96h85v118l108 59v-177h106v-96h-106v-199c0 -45 6 -74 19 -86c12 -12 41 -18 87 -18v0v-101h-16c-76 0 -128 15 -156 44s-42 82 -42 160v0v200z" />
    <glyph glyph-name="u" unicode="u" 
d="M255 -10v0c-65 0 -116 19 -151 58c-36 39 -54 92 -54 161v0v291h109v-282c0 -42 10 -75 31 -98c21 -24 51 -36 90 -36v0c36 0 66 13 90 39c24 25 36 59 36 102v0v275h107v-500h-106v65c-37 -50 -87 -75 -152 -75z" />
    <glyph glyph-name="v" unicode="v" horiz-adv-x="535" 
d="M322 0h-107l-192 500h113l133 -361l131 361h111z" />
    <glyph glyph-name="w" unicode="w" horiz-adv-x="874" 
d="M302 0h-105l-166 501l109 -1l114 -355l131 355h106l129 -355l118 355h109l-174 -500h-103l-133 357z" />
    <glyph glyph-name="x" unicode="x" horiz-adv-x="548" 
d="M149 0h-131l191 254l-183 246h130l120 -165l121 165h127l-182 -246l193 -254h-131l-130 172z" />
    <glyph glyph-name="y" unicode="y" horiz-adv-x="556" 
d="M231 -231h-110l107 257l-207 474h115l146 -347l138 347h113z" />
    <glyph glyph-name="z" unicode="z" horiz-adv-x="523" 
d="M483 0h-443v98l300 306h-293v96h432v-98l-300 -306h304v-96z" />
    <glyph glyph-name="braceleft" unicode="{" horiz-adv-x="387" 
d="M354 -131v-99h-11c-83 0 -141 16 -172 47c-32 31 -48 88 -48 170v0v108c0 41 -6 69 -17 83c-11 13 -37 20 -77 20v0v100c40 0 66 7 77 21c11 13 17 41 17 82v0v112c0 82 16 139 48 170c31 31 89 47 172 47v0h11v-99c-53 0 -86 -7 -101 -22s-23 -48 -23 -97v0v-112
c0 -41 -5 -74 -16 -98s-30 -42 -56 -54v0c26 -12 45 -30 56 -54s16 -57 16 -98v0v-108c0 -49 8 -81 23 -96s48 -23 101 -23v0z" />
    <glyph glyph-name="bar" unicode="|" horiz-adv-x="205" 
d="M157 -230h-108v960h108v-960z" />
    <glyph glyph-name="braceright" unicode="}" horiz-adv-x="387" 
d="M45 -230h-11v100c52 0 86 7 101 22s23 47 23 96v0v108c0 41 5 73 16 98s29 43 55 54v0c-26 12 -44 30 -55 54s-16 57 -16 98v0v112c0 49 -8 81 -23 96s-49 22 -101 22v0v100h11c83 0 141 -16 173 -47c31 -31 47 -88 47 -170v0v-112c0 -41 6 -69 17 -82
c11 -14 37 -21 77 -21v0v-100c-40 0 -66 -7 -77 -20c-11 -14 -17 -42 -17 -83v0v-108c0 -82 -16 -139 -47 -170c-32 -31 -90 -47 -173 -47v0z" />
    <glyph glyph-name="asciitilde" unicode="~" horiz-adv-x="472" 
d="M137 568h-71c1 38 10 69 28 92s42 34 73 34v0c22 0 48 -8 77 -25v0c27 -17 45 -25 55 -25v0c21 0 31 15 32 45v0h70c0 -39 -9 -69 -26 -92s-42 -34 -75 -34v0c-23 0 -52 10 -87 31v0c-19 12 -35 18 -46 18v0c-19 0 -29 -15 -30 -44v0z" />
    <glyph glyph-name="exclamdown" unicode="&#xa1;" horiz-adv-x="224" 
d="M166 -230h-107v117c0 157 8 298 24 421v0h59c16 -123 24 -264 24 -421v0v-117zM166 363h-107v137h107v-137z" />
    <glyph glyph-name="cent" unicode="&#xa2;" horiz-adv-x="588" 
d="M361 -130h-108v126c-63 13 -114 44 -154 93s-60 105 -60 170v0c0 65 20 122 61 171c40 48 91 78 153 91v0v127h108v-126c45 -8 85 -25 120 -52s60 -61 77 -101v0l-96 -42c-13 31 -33 56 -60 74c-27 17 -58 26 -92 26v0c-47 0 -86 -16 -118 -49s-48 -72 -48 -119v0
c0 -47 16 -87 49 -120c32 -33 72 -49 119 -49v0c35 0 66 10 93 29s46 43 59 74v0l97 -41c-18 -42 -44 -77 -78 -104c-35 -28 -75 -46 -122 -54v0v-124z" />
    <glyph glyph-name="sterling" unicode="&#xa3;" horiz-adv-x="588" 
d="M184 335h-127v87h73c-18 37 -27 76 -27 117v0c0 59 20 108 59 145s90 56 151 56v0c103 0 174 -43 213 -128v0l-100 -45c-23 51 -61 77 -113 77v0c-29 0 -53 -10 -72 -29s-28 -44 -28 -75v0c0 -35 12 -74 35 -118v0h210v-87h-162c28 -56 42 -110 42 -162v0
c0 -19 -3 -38 -9 -57v0c26 -23 46 -35 61 -35v0c13 0 22 4 27 12c5 7 7 21 7 41v0v86h111v-83c0 -53 -10 -91 -31 -113c-21 -23 -53 -34 -98 -34v0c-35 0 -73 18 -115 54v0c-30 -37 -68 -55 -114 -55v0c-45 0 -79 10 -103 31c-25 20 -37 47 -37 80v0c0 33 11 60 33 81
c21 21 50 31 86 31v0c34 0 67 -11 100 -33v0c-1 19 -5 38 -13 58s-16 36 -23 47s-19 28 -36 51v0zM172 67v0c25 0 46 10 61 29v0c-27 23 -51 34 -70 34v0c-10 0 -18 -3 -24 -9s-9 -14 -9 -23s4 -17 12 -22c7 -6 17 -9 30 -9z" />
    <glyph glyph-name="currency" unicode="&#xa4;" horiz-adv-x="773" 
d="M391 102v0c-53 0 -101 14 -144 43v0l-110 -114l-73 72l111 114c-29 43 -43 92 -43 145s14 102 43 145v0l-113 120l74 71l113 -118c43 28 91 42 142 42s98 -14 140 -41v0l107 110l73 -72l-106 -109c30 -45 45 -95 45 -148v0c0 -56 -16 -106 -47 -150v0l107 -110l-73 -71
l-108 110c-41 -26 -87 -39 -138 -39zM391 202v0c43 0 79 16 109 47s45 69 45 113s-15 82 -45 113s-66 47 -109 47v0c-43 0 -80 -15 -109 -46s-44 -69 -44 -114s15 -82 44 -113s66 -47 109 -47z" />
    <glyph glyph-name="yen" unicode="&#xa5;" horiz-adv-x="588" 
d="M240 295h-156v88h156v19l-210 328h122l143 -233l143 233h121l-210 -328v-19h155v-88h-155v-93h155v-88h-155v-114h-109v114h-156v88h156v93z" />
    <glyph glyph-name="brokenbar" unicode="&#xa6;" horiz-adv-x="226" 
d="M157 310h-108v420h108v-420zM157 -230h-108v420h108v-420z" />
    <glyph glyph-name="section" unicode="&#xa7;" horiz-adv-x="589" 
d="M292 -10v0c-64 0 -117 15 -160 46s-70 67 -79 108v0l108 28c5 -27 19 -50 44 -67s56 -26 94 -26v0c31 0 57 6 77 17c19 11 29 26 29 47v0c0 19 -9 32 -28 41s-53 18 -100 29v0c-13 3 -23 6 -30 7v0c-72 17 -125 37 -159 60c-35 22 -52 53 -52 94v0c0 27 8 51 25 73
c17 21 38 37 65 47v0c-29 25 -43 56 -43 94v0c0 45 19 82 56 111c37 28 86 42 149 41v0c61 0 112 -14 151 -41c39 -28 63 -62 72 -101v0l-103 -27c-4 26 -16 47 -37 62s-49 23 -85 23v0c-31 0 -55 -5 -73 -16c-19 -11 -28 -27 -28 -48v0c0 -11 3 -20 10 -28s18 -15 34 -21
c16 -7 31 -12 46 -16c15 -5 36 -10 65 -17v0c71 -17 124 -36 159 -59s52 -54 52 -94v0c0 -26 -8 -49 -23 -70c-16 -21 -37 -37 -62 -47v0c29 -23 44 -54 44 -92v0c0 -47 -20 -85 -61 -114c-41 -30 -93 -45 -157 -44zM306 302v0c42 -11 68 -18 78 -21v0c41 12 61 33 61 63v0
c0 19 -13 35 -39 47c-27 12 -68 24 -125 37v0c-31 7 -57 14 -76 22v0c-19 -4 -35 -12 -46 -23c-11 -12 -17 -25 -17 -40v0c0 -20 13 -36 39 -47c25 -12 67 -25 125 -38z" />
    <glyph glyph-name="dieresis" unicode="&#xa8;" horiz-adv-x="488" 
d="M376 558h-107v138h107v-138zM215 558h-107v138h107v-138z" />
    <glyph glyph-name="copyright" unicode="&#xa9;" horiz-adv-x="817" 
d="M674 100c-73 -73 -162 -110 -265 -110s-191 37 -264 110s-110 162 -110 265s37 192 110 265s161 110 264 110s192 -37 265 -110s109 -162 109 -265s-36 -192 -109 -265zM409 78v0c79 0 146 28 201 84s82 124 82 203s-27 147 -82 204c-55 56 -122 84 -201 84v0
c-80 0 -147 -28 -201 -84s-81 -124 -81 -204s27 -148 81 -203c54 -56 121 -84 201 -84zM414 165v0c-58 0 -106 19 -144 58c-39 39 -58 86 -58 142s19 104 58 143s87 58 144 58v0c39 0 74 -10 106 -29c31 -20 55 -45 70 -76v0l-86 -44c-7 17 -18 31 -34 42s-35 16 -57 16v0
c-30 0 -56 -11 -77 -32s-32 -47 -32 -78s11 -57 32 -78s47 -32 77 -32v0c22 0 42 6 59 18c17 11 28 26 34 43v0l88 -37c-16 -33 -40 -61 -72 -82s-68 -32 -108 -32z" />
    <glyph glyph-name="ordfeminine" unicode="&#xaa;" horiz-adv-x="386" 
d="M173 435v0c-35 0 -66 13 -94 40c-29 27 -43 63 -43 110v0c0 47 14 84 43 111s60 40 95 40v0c36 0 65 -12 88 -36v0v30h79v-289h-79v32c-23 -25 -53 -38 -89 -38zM191 508v0c21 0 39 8 53 23s21 34 21 55v0c0 22 -7 40 -21 55s-32 22 -53 22v0c-22 0 -40 -7 -55 -21
c-15 -15 -22 -33 -22 -56v0c0 -22 7 -40 22 -55s33 -23 55 -23z" />
    <glyph glyph-name="guillemotleft" unicode="&#xab;" horiz-adv-x="471" 
d="M228 182v-74l-173 114v62l173 114v-75l-107 -70zM416 182v-74l-173 114v62l173 114v-75l-107 -70z" />
    <glyph glyph-name="logicalnot" unicode="&#xac;" horiz-adv-x="603" 
d="M568 178h-108v240h-432v104h540v-344z" />
    <glyph glyph-name="uni00AD" unicode="&#xad;" horiz-adv-x="457" 
d="M414 206h-370v93h370v-93z" />
    <glyph glyph-name="registered" unicode="&#xae;" horiz-adv-x="379" 
d="M299 476c-30 -31 -66 -46 -109 -46s-79 15 -109 46c-31 30 -46 66 -46 109s15 79 46 110c30 30 66 45 109 45s79 -15 109 -45c30 -31 45 -67 45 -110s-15 -79 -45 -109zM173 510h-49v154h76c20 0 36 -5 48 -16c11 -11 17 -24 17 -40v0c0 -24 -10 -40 -29 -49v0l32 -48
c19 22 28 47 28 74v0c0 30 -10 56 -31 77s-46 32 -75 32v0c-30 0 -55 -11 -76 -32s-31 -47 -31 -77s10 -56 31 -77s46 -32 76 -32s55 11 76 34v0h-50l-43 72v-72zM188 621v0h-15v-32h15c18 0 27 6 27 17v0c0 10 -9 15 -27 15z" />
    <glyph glyph-name="macron" unicode="&#xaf;" horiz-adv-x="485" 
d="M375 554h-264v77h264v-77z" />
    <glyph glyph-name="degree" unicode="&#xb0;" horiz-adv-x="415" 
d="M317 478c-30 -30 -66 -45 -109 -45s-79 15 -109 45s-45 66 -45 109s15 79 45 109c30 29 66 44 109 44s79 -15 109 -44c29 -30 44 -66 44 -109s-15 -79 -44 -109zM164 542c12 -13 27 -19 44 -19s32 6 45 19c12 12 18 27 18 44s-6 32 -18 45c-13 12 -28 18 -45 18
s-32 -6 -44 -18c-13 -13 -19 -28 -19 -45s6 -32 19 -44z" />
    <glyph glyph-name="plusminus" unicode="&#xb1;" horiz-adv-x="457" 
d="M184 424h-140v92h140v139h90v-139h140v-92h-140v-139h-90v139zM414 122h-370v92h370v-92z" />
    <glyph glyph-name="uni00B2" unicode="&#xb2;" horiz-adv-x="334" 
d="M311 308h-287v75c0 24 6 46 19 67s26 37 40 48s32 23 55 37v0c39 24 62 42 70 53v0c6 8 9 16 9 25v0c0 13 -4 23 -13 31s-22 12 -39 12v0c-31 0 -54 -19 -70 -57v0l-79 41c29 64 79 96 150 96v0c43 0 79 -12 106 -35s40 -53 40 -88v0c0 -17 -3 -33 -9 -48
s-16 -28 -29 -40c-13 -13 -25 -22 -34 -29c-10 -7 -24 -16 -41 -27v0c-18 -11 -31 -19 -39 -24s-16 -13 -25 -22s-13 -19 -14 -28v0h190v-87z" />
    <glyph glyph-name="uni00B3" unicode="&#xb3;" horiz-adv-x="323" 
d="M156 302v0c-63 0 -111 19 -145 57v0l73 61c19 -23 41 -34 68 -34v0c17 0 30 5 41 14s16 20 16 35v0c0 15 -6 27 -19 35s-29 12 -50 12v0h-43v83h42c19 0 35 4 46 13s16 20 16 34v0c0 13 -5 24 -14 32c-10 8 -23 12 -40 12v0c-26 0 -46 -12 -61 -35v0l-70 52
c31 42 76 63 133 63v0c44 0 79 -11 106 -33s40 -51 40 -88v0c0 -35 -15 -64 -45 -87v0c37 -21 55 -53 55 -95v0c0 -38 -13 -69 -40 -94s-64 -37 -109 -37z" />
    <glyph glyph-name="acute" unicode="&#xb4;" horiz-adv-x="485" 
d="M200 554h-82l116 166h114z" />
    <glyph glyph-name="mu" unicode="&#xb5;" horiz-adv-x="561" 
d="M156 -230h-107v730h109v-266c0 -47 11 -83 32 -110s51 -40 88 -40v0c37 0 67 13 91 39c24 25 36 59 36 102v0v275h107v-500h-106v61c-35 -47 -84 -71 -145 -71v0c-38 0 -73 11 -105 34v0v-254z" />
    <glyph glyph-name="paragraph" unicode="&#xb6;" horiz-adv-x="632" 
d="M430 0h-93v302h-91c-62 0 -114 21 -155 62s-62 92 -62 152s21 111 62 152s93 62 154 62v0h339v-730h-94v630h-60v-630z" />
    <glyph glyph-name="periodcentered" unicode="&#xb7;" horiz-adv-x="205" 
d="M156 184h-107v137h107v-137z" />
    <glyph glyph-name="cedilla" unicode="&#xb8;" horiz-adv-x="485" 
d="M226 -237v0c-55 0 -103 19 -144 57v0l69 42c29 -23 56 -34 81 -34v0c17 0 31 3 43 10s18 15 18 25v0c0 21 -21 32 -64 32v0h-46v105h75v-53c35 1 64 -6 85 -21s32 -35 32 -59v0c0 -30 -14 -55 -43 -74c-29 -20 -65 -30 -106 -30z" />
    <glyph glyph-name="uni00B9" unicode="&#xb9;" horiz-adv-x="296" 
d="M277 308h-254v87h82v203c-14 -19 -36 -29 -66 -29v0h-6v91h3c25 0 44 7 55 21s17 30 17 49v0h90v-335h79v-87z" />
    <glyph glyph-name="ordmasculine" unicode="&#xba;" horiz-adv-x="371" 
d="M292 479c-29 -29 -65 -44 -106 -44s-77 15 -106 44s-44 65 -44 106v0c0 42 15 78 44 107s65 44 106 44s77 -15 106 -44s43 -65 43 -107v0c0 -41 -14 -77 -43 -106zM135 533c14 -15 31 -22 51 -22s37 7 51 22s21 32 21 52v0c0 21 -7 39 -20 54c-14 15 -31 22 -52 22
s-38 -7 -52 -22s-21 -33 -21 -54v0c0 -20 7 -37 22 -52z" />
    <glyph glyph-name="guillemotright" unicode="&#xbb;" horiz-adv-x="471" 
d="M416 223l-173 -115v75l108 70l-108 71v75l173 -115v-61zM228 223l-173 -115v75l108 70l-108 71v75l173 -115v-61z" />
    <glyph glyph-name="onequarter" unicode="&#xbc;" horiz-adv-x="832" 
d="M222 0h-125l527 730h125zM748 0h-88v90h-176v83l174 249h90v-251h61v-81h-61v-90zM277 308h-254v87h82v203c-14 -19 -36 -29 -66 -29v0h-6v91h3c25 0 44 7 55 21s17 30 17 49v0h90v-335h79v-87zM660 284l-79 -113h79v113z" />
    <glyph glyph-name="onehalf" unicode="&#xbd;" horiz-adv-x="859" 
d="M222 0h-125l527 730h125zM833 0h-287v75c0 24 6 46 19 67s26 37 40 48s32 23 55 37v0c39 24 62 42 70 53v0c6 8 9 16 9 25v0c0 13 -4 23 -13 31s-22 12 -39 12v0c-31 0 -54 -19 -70 -57v0l-79 41c29 64 79 96 150 96v0c43 0 79 -12 106 -35s40 -53 40 -88v0
c0 -17 -3 -33 -9 -48s-16 -28 -29 -40c-13 -13 -25 -22 -34 -29c-10 -7 -24 -16 -41 -27v0c-18 -11 -31 -19 -39 -24s-16 -13 -25 -22s-13 -19 -14 -28v0h190v-87zM277 308h-254v87h82v203c-14 -19 -36 -29 -66 -29v0h-6v91h3c25 0 44 7 55 21s17 30 17 49v0h90v-335h79v-87
z" />
    <glyph glyph-name="threequarters" unicode="&#xbe;" horiz-adv-x="835" 
d="M225 0h-125l527 730h125zM751 0h-88v90h-176v83l174 249h90v-251h61v-81h-61v-90zM156 302v0c-63 0 -111 19 -145 57v0l73 61c19 -23 41 -34 68 -34v0c17 0 30 5 41 14s16 20 16 35v0c0 15 -6 27 -19 35s-29 12 -50 12v0h-43v83h42c19 0 35 4 46 13s16 20 16 34v0
c0 13 -5 24 -14 32c-10 8 -23 12 -40 12v0c-26 0 -46 -12 -61 -35v0l-70 52c31 42 76 63 133 63v0c44 0 79 -11 106 -33s40 -51 40 -88v0c0 -35 -15 -64 -45 -87v0c37 -21 55 -53 55 -95v0c0 -38 -13 -69 -40 -94s-64 -37 -109 -37zM663 284l-79 -113h79v113z" />
    <glyph glyph-name="questiondown" unicode="&#xbf;" horiz-adv-x="531" 
d="M267 -240v0c-65 0 -119 18 -161 55c-42 36 -63 83 -63 142v0c0 29 5 55 14 78c9 22 21 39 35 52c14 12 29 25 46 39c17 13 32 27 46 40s26 31 35 54s14 50 14 81v0v10h97v-10c0 -33 -3 -63 -10 -89c-7 -27 -15 -48 -25 -64c-11 -17 -22 -31 -34 -44
c-13 -13 -25 -25 -38 -34c-13 -10 -24 -20 -34 -30c-11 -10 -19 -22 -26 -36s-10 -30 -10 -48v0c0 -29 11 -54 33 -73c21 -19 49 -29 83 -29v0c58 0 99 30 124 89v0l99 -37c-16 -44 -43 -79 -82 -106s-86 -40 -143 -40zM335 363h-107v137h107v-137z" />
    <glyph glyph-name="Agrave" unicode="&#xc0;" horiz-adv-x="696" 
d="M138 0h-114l268 730h112l268 -730h-113l-57 156h-308zM464 260l-116 320l-116 -320h232zM388 784h-82l-148 166h114z" />
    <glyph glyph-name="Aacute" unicode="&#xc1;" horiz-adv-x="696" 
d="M138 0h-114l268 730h112l268 -730h-113l-57 156h-308zM464 260l-116 320l-116 -320h232zM384 784h-82l116 166h114z" />
    <glyph glyph-name="Acircumflex" unicode="&#xc2;" horiz-adv-x="696" 
d="M138 0h-114l268 730h112l268 -730h-113l-57 156h-308zM464 260l-116 320l-116 -320h232zM279 784h-92l119 166h75l119 -166h-91l-66 94z" />
    <glyph glyph-name="Atilde" unicode="&#xc3;" horiz-adv-x="696" 
d="M138 0h-114l268 730h112l268 -730h-113l-57 156h-308zM464 260l-116 320l-116 -320h232zM244 784h-71c0 39 9 70 28 93s43 35 74 35v0c23 0 50 -9 79 -26v0c27 -17 46 -26 57 -26v0c22 0 33 16 33 48v0h71c0 -40 -9 -71 -26 -94c-18 -23 -44 -34 -77 -34v0
c-23 0 -52 11 -89 32v0c-21 13 -37 19 -48 19v0c-21 0 -31 -16 -31 -47v0z" />
    <glyph glyph-name="Adieresis" unicode="&#xc4;" horiz-adv-x="696" 
d="M138 0h-114l268 730h112l268 -730h-113l-57 156h-308zM464 260l-116 320l-116 -320h232zM480 788h-107v138h107v-138zM319 788h-107v138h107v-138z" />
    <glyph glyph-name="Aring" unicode="&#xc5;" horiz-adv-x="696" 
d="M138 0h-114l252 688c-29 22 -43 52 -43 89v0c0 31 11 58 33 80c21 22 47 33 78 33v0c32 0 59 -11 81 -33s33 -49 33 -80v0c0 -34 -13 -63 -40 -86v0l254 -691h-113l-57 156h-308zM464 260l-116 320l-116 -320h232zM344 734v0c13 0 23 4 32 13c9 8 13 18 13 30
s-4 23 -13 32s-19 13 -32 13v0c-11 0 -21 -4 -30 -13s-13 -20 -13 -32s4 -22 13 -30c9 -9 19 -13 30 -13z" />
    <glyph glyph-name="AE" unicode="&#xc6;" horiz-adv-x="980" 
d="M137 0h-117l339 730h567v-103h-428l51 -209h377v-103h-352l51 -211h301v-104h-389l-37 154h-292zM476 254l-75 318l-147 -318h222z" />
    <glyph glyph-name="Ccedilla" unicode="&#xc7;" horiz-adv-x="761" 
d="M405 -237v0c-55 0 -103 19 -144 57v0l69 42c29 -23 56 -34 81 -34v0c17 0 31 3 43 10s18 15 18 25v0c0 21 -21 32 -64 32v0h-46v98c-95 11 -174 52 -235 123c-61 70 -92 153 -92 249v0c0 106 36 195 109 267s161 108 266 108v0c68 0 131 -17 188 -50s102 -78 135 -134v0
l-95 -59c-23 43 -54 77 -93 102c-39 24 -84 36 -135 36v0c-75 0 -138 -26 -189 -78c-51 -53 -77 -117 -77 -192v0c0 -75 26 -138 77 -190s113 -78 188 -78v0c55 0 102 14 143 41c40 27 71 63 93 109v0l98 -52c-30 -59 -72 -106 -125 -142c-54 -37 -114 -57 -181 -62v0v-44
c35 1 64 -6 85 -21s32 -35 32 -59v0c0 -30 -14 -55 -43 -74c-29 -20 -65 -30 -106 -30z" />
    <glyph glyph-name="Egrave" unicode="&#xc8;" horiz-adv-x="540" 
d="M494 0h-438v730h438v-103h-329v-209h329v-103h-329v-211h329v-104zM324 784h-82l-148 166h114z" />
    <glyph glyph-name="Eacute" unicode="&#xc9;" horiz-adv-x="540" 
d="M494 0h-438v730h438v-103h-329v-209h329v-103h-329v-211h329v-104zM300 784h-82l116 166h114z" />
    <glyph glyph-name="Ecircumflex" unicode="&#xca;" horiz-adv-x="540" 
d="M494 0h-438v730h438v-103h-329v-209h329v-103h-329v-211h329v-104zM207 784h-92l119 166h75l119 -166h-91l-66 94z" />
    <glyph glyph-name="Edieresis" unicode="&#xcb;" horiz-adv-x="540" 
d="M494 0h-438v730h438v-103h-329v-209h329v-103h-329v-211h329v-104zM250 788h-107v138h107v-138zM411 788h-107v138h107v-138z" />
    <glyph glyph-name="Igrave" unicode="&#xcc;" horiz-adv-x="235" 
d="M172 0h-109v730h109v-730zM159 784h-82l-148 166h114z" />
    <glyph glyph-name="Iacute" unicode="&#xcd;" horiz-adv-x="235" 
d="M172 0h-109v730h109v-730zM156 784h-82l116 166h114z" />
    <glyph glyph-name="Icircumflex" unicode="&#xce;" horiz-adv-x="235" 
d="M172 0h-109v730h109v-730zM52 784h-92l119 166h75l119 -166h-91l-66 94z" />
    <glyph glyph-name="Idieresis" unicode="&#xcf;" horiz-adv-x="235" 
d="M273 788h-107v138h107v-138zM69 788h-107v138h107v-138zM172 0h-109v730h109v-730z" />
    <glyph glyph-name="Eth" unicode="&#xd0;" horiz-adv-x="713" 
d="M94 318h-72v97h72v315h201c116 0 209 -34 279 -103c69 -69 104 -156 104 -262v0c0 -105 -36 -192 -107 -261c-72 -69 -163 -104 -272 -104v0h-205v318zM283 630v0h-80v-215h188v-97h-188v-217h84c83 0 151 25 204 75c52 50 78 113 78 189v0c0 79 -25 143 -76 192
s-121 73 -210 73z" />
    <glyph glyph-name="Ntilde" unicode="&#xd1;" horiz-adv-x="713" 
d="M165 0h-109v730h123l370 -552v552h108v-730h-115l-377 561v-561zM254 784h-71c0 39 9 70 28 93s43 35 74 35v0c23 0 50 -9 79 -26v0c27 -17 46 -26 57 -26v0c22 0 33 16 33 48v0h71c0 -40 -9 -71 -26 -94c-18 -23 -44 -34 -77 -34v0c-23 0 -52 11 -89 32v0
c-21 13 -37 19 -48 19v0c-21 0 -31 -16 -31 -47v0z" />
    <glyph glyph-name="Ograve" unicode="&#xd2;" horiz-adv-x="819" 
d="M409 -10v0c-103 0 -191 37 -264 110s-110 162 -110 265s37 192 110 265s161 110 264 110v0c104 0 193 -37 266 -110s109 -162 109 -265s-36 -192 -109 -265s-162 -110 -266 -110zM409 96v0c75 0 138 26 189 79c51 52 77 115 77 190s-26 138 -77 191s-114 79 -189 79v0
c-74 0 -137 -26 -188 -79s-77 -116 -77 -191s26 -138 77 -190c51 -53 114 -79 188 -79zM449 784h-82l-148 166h114z" />
    <glyph glyph-name="Oacute" unicode="&#xd3;" horiz-adv-x="819" 
d="M443 784h-82l116 166h114zM409 -10v0c-103 0 -191 37 -264 110s-110 162 -110 265s37 192 110 265s161 110 264 110v0c104 0 193 -37 266 -110s109 -162 109 -265s-36 -192 -109 -265s-162 -110 -266 -110zM409 96v0c75 0 138 26 189 79c51 52 77 115 77 190
s-26 138 -77 191s-114 79 -189 79v0c-74 0 -137 -26 -188 -79s-77 -116 -77 -191s26 -138 77 -190c51 -53 114 -79 188 -79z" />
    <glyph glyph-name="Ocircumflex" unicode="&#xd4;" horiz-adv-x="819" 
d="M409 -10v0c-103 0 -191 37 -264 110s-110 162 -110 265s37 192 110 265s161 110 264 110v0c104 0 193 -37 266 -110s109 -162 109 -265s-36 -192 -109 -265s-162 -110 -266 -110zM409 96v0c75 0 138 26 189 79c51 52 77 115 77 190s-26 138 -77 191s-114 79 -189 79v0
c-74 0 -137 -26 -188 -79s-77 -116 -77 -191s26 -138 77 -190c51 -53 114 -79 188 -79zM341 784h-92l119 166h75l119 -166h-91l-66 94z" />
    <glyph glyph-name="Otilde" unicode="&#xd5;" horiz-adv-x="819" 
d="M409 -10v0c-103 0 -191 37 -264 110s-110 162 -110 265s37 192 110 265s161 110 264 110v0c104 0 193 -37 266 -110s109 -162 109 -265s-36 -192 -109 -265s-162 -110 -266 -110zM409 96v0c75 0 138 26 189 79c51 52 77 115 77 190s-26 138 -77 191s-114 79 -189 79v0
c-74 0 -137 -26 -188 -79s-77 -116 -77 -191s26 -138 77 -190c51 -53 114 -79 188 -79zM303 784h-71c0 39 9 70 28 93s43 35 74 35v0c23 0 50 -9 79 -26v0c27 -17 46 -26 57 -26v0c22 0 33 16 33 48v0h71c0 -40 -9 -71 -26 -94c-18 -23 -44 -34 -77 -34v0
c-23 0 -52 11 -89 32v0c-21 13 -37 19 -48 19v0c-21 0 -31 -16 -31 -47v0z" />
    <glyph glyph-name="Odieresis" unicode="&#xd6;" horiz-adv-x="819" 
d="M539 788h-107v138h107v-138zM378 788h-107v138h107v-138zM409 -10v0c-103 0 -191 37 -264 110s-110 162 -110 265s37 192 110 265s161 110 264 110v0c104 0 193 -37 266 -110s109 -162 109 -265s-36 -192 -109 -265s-162 -110 -266 -110zM409 96v0c75 0 138 26 189 79
c51 52 77 115 77 190s-26 138 -77 191s-114 79 -189 79v0c-74 0 -137 -26 -188 -79s-77 -116 -77 -191s26 -138 77 -190c51 -53 114 -79 188 -79z" />
    <glyph glyph-name="multiply" unicode="&#xd7;" horiz-adv-x="457" 
d="M229 300l-113 -113l-64 64l113 113l-113 114l63 63l113 -114l114 114l64 -64l-114 -114l113 -112l-63 -63z" />
    <glyph glyph-name="Oslash" unicode="&#xd8;" horiz-adv-x="819" 
d="M186 0h-125l81 102c-71 73 -107 161 -107 263v0c0 103 37 192 110 265s161 110 264 110v0c67 0 132 -18 193 -53v0l34 43h126l-83 -105c70 -72 105 -159 105 -260v0c0 -103 -36 -192 -109 -265s-162 -110 -266 -110v0c-69 0 -132 17 -190 52v0zM144 365v0
c0 -68 22 -127 65 -178v0l327 415c-40 22 -82 33 -127 33v0c-74 0 -137 -26 -188 -79s-77 -116 -77 -191zM409 96v0c75 0 138 26 189 79c51 52 77 115 77 190v0c0 66 -21 124 -63 175v0l-327 -414c39 -20 80 -30 124 -30z" />
    <glyph glyph-name="Ugrave" unicode="&#xd9;" horiz-adv-x="620" 
d="M310 -10v0c-75 0 -137 23 -184 70c-48 47 -72 109 -72 186v0v484h109v-491c0 -41 14 -75 42 -104s63 -43 104 -43v0c42 0 77 14 106 43s43 63 43 104v0v491h108v-484c0 -77 -24 -139 -72 -186s-109 -70 -184 -70zM357 784h-82l-148 166h114z" />
    <glyph glyph-name="Uacute" unicode="&#xda;" horiz-adv-x="620" 
d="M340 784h-82l116 166h114zM310 -10v0c-75 0 -137 23 -184 70c-48 47 -72 109 -72 186v0v484h109v-491c0 -41 14 -75 42 -104s63 -43 104 -43v0c42 0 77 14 106 43s43 63 43 104v0v491h108v-484c0 -77 -24 -139 -72 -186s-109 -70 -184 -70z" />
    <glyph glyph-name="Ucircumflex" unicode="&#xdb;" horiz-adv-x="620" 
d="M310 -10v0c-75 0 -137 23 -184 70c-48 47 -72 109 -72 186v0v484h109v-491c0 -41 14 -75 42 -104s63 -43 104 -43v0c42 0 77 14 106 43s43 63 43 104v0v491h108v-484c0 -77 -24 -139 -72 -186s-109 -70 -184 -70zM243 784h-92l119 166h75l119 -166h-91l-66 94z" />
    <glyph glyph-name="Udieresis" unicode="&#xdc;" horiz-adv-x="620" 
d="M446 788h-107v138h107v-138zM285 788h-107v138h107v-138zM310 -10v0c-75 0 -137 23 -184 70c-48 47 -72 109 -72 186v0v484h109v-491c0 -41 14 -75 42 -104s63 -43 104 -43v0c42 0 77 14 106 43s43 63 43 104v0v491h108v-484c0 -77 -24 -139 -72 -186s-109 -70 -184 -70z
" />
    <glyph glyph-name="Yacute" unicode="&#xdd;" horiz-adv-x="624" 
d="M366 0h-108v346l-237 384h120l171 -280l172 280h120l-238 -385v-345zM346 784h-82l116 166h114z" />
    <glyph glyph-name="Thorn" unicode="&#xde;" horiz-adv-x="563" 
d="M165 0h-109v730h109v-139h133c67 0 121 -21 164 -62s64 -93 64 -156s-21 -115 -64 -156s-97 -62 -164 -62v0h-133v-155zM291 490v0h-126v-235h126c38 0 69 11 92 33s34 50 34 85v0c0 34 -11 62 -34 84s-54 33 -92 33z" />
    <glyph glyph-name="germandbls" unicode="&#xdf;" horiz-adv-x="535" 
d="M-37 -230h-16v101c43 0 72 7 85 21s19 42 19 84v0v542c-1 64 17 116 55 155c37 39 90 58 158 58v0c62 0 113 -19 152 -56s58 -85 58 -143v0c0 -35 -9 -65 -26 -91c-17 -27 -42 -47 -73 -60v0c37 -13 68 -35 92 -65c23 -31 35 -67 35 -108v0c0 -63 -20 -115 -61 -156
s-95 -61 -162 -61v0c-31 0 -56 4 -74 12v0v97c13 -8 37 -12 73 -12v0c33 0 60 12 82 35c21 23 32 51 32 84s-13 62 -38 85s-59 34 -101 34v0h-21v98h21c34 0 62 10 84 31c21 21 32 47 32 78v0c0 30 -10 55 -29 76c-20 21 -46 31 -77 31v0c-33 0 -60 -10 -80 -29
s-30 -47 -30 -82v0v-553c0 -77 -14 -130 -41 -160c-27 -31 -77 -46 -149 -46v0z" />
    <glyph glyph-name="agrave" unicode="&#xe0;" horiz-adv-x="608" 
d="M283 -10v0c-67 0 -125 24 -174 73c-50 48 -75 110 -75 187v0c0 77 25 140 74 188s108 72 176 72v0c33 0 64 -7 94 -20c29 -13 53 -32 72 -55v0v65h107v-500h-107v69c-19 -25 -44 -44 -73 -58c-30 -14 -61 -21 -94 -21zM298 88v0c45 0 83 16 113 48c30 31 45 70 45 115
s-15 84 -45 115s-68 47 -113 47v0c-45 0 -82 -16 -112 -47c-31 -31 -46 -70 -46 -115s15 -84 46 -115c30 -32 67 -48 112 -48zM337 554h-82l-148 166h114z" />
    <glyph glyph-name="aacute" unicode="&#xe1;" horiz-adv-x="608" 
d="M283 -10v0c-67 0 -125 24 -174 73c-50 48 -75 110 -75 187v0c0 77 25 140 74 188s108 72 176 72v0c33 0 64 -7 94 -20c29 -13 53 -32 72 -55v0v65h107v-500h-107v69c-19 -25 -44 -44 -73 -58c-30 -14 -61 -21 -94 -21zM298 88v0c45 0 83 16 113 48c30 31 45 70 45 115
s-15 84 -45 115s-68 47 -113 47v0c-45 0 -82 -16 -112 -47c-31 -31 -46 -70 -46 -115s15 -84 46 -115c30 -32 67 -48 112 -48zM316 554h-82l116 166h114z" />
    <glyph glyph-name="acircumflex" unicode="&#xe2;" horiz-adv-x="608" 
d="M283 -10v0c-67 0 -125 24 -174 73c-50 48 -75 110 -75 187v0c0 77 25 140 74 188s108 72 176 72v0c33 0 64 -7 94 -20c29 -13 53 -32 72 -55v0v65h107v-500h-107v69c-19 -25 -44 -44 -73 -58c-30 -14 -61 -21 -94 -21zM298 88v0c45 0 83 16 113 48c30 31 45 70 45 115
s-15 84 -45 115s-68 47 -113 47v0c-45 0 -82 -16 -112 -47c-31 -31 -46 -70 -46 -115s15 -84 46 -115c30 -32 67 -48 112 -48zM251 554h-92l119 166h75l119 -166h-91l-66 94z" />
    <glyph glyph-name="atilde" unicode="&#xe3;" horiz-adv-x="608" 
d="M283 -10v0c-67 0 -125 24 -174 73c-50 48 -75 110 -75 187v0c0 77 25 140 74 188s108 72 176 72v0c33 0 64 -7 94 -20c29 -13 53 -32 72 -55v0v65h107v-500h-107v69c-19 -25 -44 -44 -73 -58c-30 -14 -61 -21 -94 -21zM298 88v0c45 0 83 16 113 48c30 31 45 70 45 115
s-15 84 -45 115s-68 47 -113 47v0c-45 0 -82 -16 -112 -47c-31 -31 -46 -70 -46 -115s15 -84 46 -115c30 -32 67 -48 112 -48zM209 554h-71c0 39 9 70 28 93s43 35 74 35v0c23 0 50 -9 79 -26v0c27 -17 46 -26 57 -26v0c22 0 33 16 33 48v0h71c0 -40 -9 -71 -26 -94
c-18 -23 -44 -34 -77 -34v0c-23 0 -52 11 -89 32v0c-21 13 -37 19 -48 19v0c-21 0 -31 -16 -31 -47v0z" />
    <glyph glyph-name="adieresis" unicode="&#xe4;" horiz-adv-x="608" 
d="M283 -10v0c-67 0 -125 24 -174 73c-50 48 -75 110 -75 187v0c0 77 25 140 74 188s108 72 176 72v0c33 0 64 -7 94 -20c29 -13 53 -32 72 -55v0v65h107v-500h-107v69c-19 -25 -44 -44 -73 -58c-30 -14 -61 -21 -94 -21zM298 88v0c45 0 83 16 113 48c30 31 45 70 45 115
s-15 84 -45 115s-68 47 -113 47v0c-45 0 -82 -16 -112 -47c-31 -31 -46 -70 -46 -115s15 -84 46 -115c30 -32 67 -48 112 -48zM445 558h-107v138h107v-138zM284 558h-107v138h107v-138z" />
    <glyph glyph-name="aring" unicode="&#xe5;" horiz-adv-x="608" 
d="M283 -10v0c-67 0 -125 24 -174 73c-50 48 -75 110 -75 187v0c0 77 25 140 74 188s108 72 176 72v0c33 0 64 -7 94 -20c29 -13 53 -32 72 -55v0v65h107v-500h-107v69c-19 -25 -44 -44 -73 -58c-30 -14 -61 -21 -94 -21zM298 88v0c45 0 83 16 113 48c30 31 45 70 45 115
s-15 84 -45 115s-68 47 -113 47v0c-45 0 -82 -16 -112 -47c-31 -31 -46 -70 -46 -115s15 -84 46 -115c30 -32 67 -48 112 -48zM294 547v0c-31 0 -57 11 -78 33c-22 22 -33 48 -33 79v0c0 31 11 58 33 80c21 22 47 33 78 33v0c32 0 59 -11 81 -33s33 -49 33 -80
s-11 -58 -33 -79c-22 -22 -49 -33 -81 -33zM294 616v0c13 0 23 4 32 13c9 8 13 18 13 30s-4 23 -13 32s-19 13 -32 13v0c-11 0 -21 -4 -30 -13s-13 -20 -13 -32s4 -22 13 -30c9 -9 19 -13 30 -13z" />
    <glyph glyph-name="ae" unicode="&#xe6;" horiz-adv-x="922" 
d="M635 -10v0c-95 0 -168 36 -217 107v0c-17 -31 -44 -56 -81 -76c-37 -21 -78 -31 -124 -31v0c-61 0 -106 13 -135 38c-30 25 -45 59 -46 102v0c0 44 15 78 44 102s71 43 124 56v0c9 2 21 5 36 9c15 3 26 6 35 8s19 5 31 8s21 7 28 10s14 7 21 11s12 9 15 14s4 11 4 18v0
c0 17 -9 32 -26 43c-18 11 -43 17 -75 17v0c-41 0 -72 -9 -93 -28c-22 -19 -33 -43 -33 -72v0v-3h-98v2c0 57 20 103 59 136s92 49 161 49v0c87 0 148 -25 181 -76v0c49 51 111 76 184 76v0c74 0 135 -24 184 -72c49 -49 73 -110 73 -184v0v-38h-414c7 -39 25 -71 54 -95
s65 -36 108 -36v0c33 0 63 9 89 26s46 39 59 67v0l90 -40c-21 -46 -53 -82 -94 -108c-42 -27 -90 -40 -144 -40zM218 79v0c39 0 74 13 104 40s47 53 52 78v0v33v14l-2 14c-7 -15 -47 -31 -121 -47v0c-39 -9 -68 -18 -85 -29c-18 -11 -27 -28 -27 -49v0c0 -36 26 -54 79 -54z
M630 416v0c-36 0 -67 -10 -94 -30s-45 -47 -56 -80v0h299c-9 35 -26 62 -52 81c-27 19 -59 29 -97 29z" />
    <glyph glyph-name="ccedilla" unicode="&#xe7;" horiz-adv-x="561" 
d="M298 -237v0c-55 0 -103 19 -144 57v0l69 42c29 -23 56 -34 81 -34v0c17 0 31 3 43 10s18 15 18 25v0c0 21 -21 32 -64 32v0h-46v98c-64 9 -117 38 -158 87c-42 48 -63 105 -63 170v0c0 73 25 135 76 185c50 50 112 75 185 75v0c55 0 103 -14 145 -42s73 -65 92 -111v0
l-96 -41c-13 29 -31 52 -56 69s-53 25 -85 25v0c-44 0 -81 -15 -111 -46s-45 -69 -45 -114s15 -82 46 -113c30 -31 67 -47 112 -47v0c33 0 61 9 86 27s43 42 55 71v0l97 -41c-19 -43 -46 -78 -81 -105c-35 -28 -77 -45 -124 -50v0v-45c35 1 64 -6 85 -21s32 -35 32 -59v0
c0 -30 -14 -55 -43 -74c-29 -20 -65 -30 -106 -30z" />
    <glyph glyph-name="egrave" unicode="&#xe8;" horiz-adv-x="586" 
d="M298 -10v0c-78 0 -141 25 -190 74s-74 111 -74 184s25 135 75 186s112 76 185 76v0c74 0 135 -24 184 -72s73 -109 73 -183v0v-42h-414c7 -39 25 -70 54 -93c28 -23 64 -35 107 -35v0c33 0 63 8 88 24s45 38 58 66v0l88 -49c-49 -91 -127 -136 -234 -136zM294 416v0
c-37 0 -69 -10 -96 -31s-46 -48 -56 -81v0h300c-8 36 -25 64 -51 83s-58 29 -97 29zM344 554h-82l-148 166h114z" />
    <glyph glyph-name="eacute" unicode="&#xe9;" horiz-adv-x="586" 
d="M298 -10v0c-78 0 -141 25 -190 74s-74 111 -74 184s25 135 75 186s112 76 185 76v0c74 0 135 -24 184 -72s73 -109 73 -183v0v-42h-414c7 -39 25 -70 54 -93c28 -23 64 -35 107 -35v0c33 0 63 8 88 24s45 38 58 66v0l88 -49c-49 -91 -127 -136 -234 -136zM294 416v0
c-37 0 -69 -10 -96 -31s-46 -48 -56 -81v0h300c-8 36 -25 64 -51 83s-58 29 -97 29zM323 554h-82l116 166h114z" />
    <glyph glyph-name="ecircumflex" unicode="&#xea;" horiz-adv-x="586" 
d="M298 -10v0c-78 0 -141 25 -190 74s-74 111 -74 184s25 135 75 186s112 76 185 76v0c74 0 135 -24 184 -72s73 -109 73 -183v0v-42h-414c7 -39 25 -70 54 -93c28 -23 64 -35 107 -35v0c33 0 63 8 88 24s45 38 58 66v0l88 -49c-49 -91 -127 -136 -234 -136zM227 554h-92
l119 166h75l119 -166h-91l-66 94zM294 416v0c-37 0 -69 -10 -96 -31s-46 -48 -56 -81v0h300c-8 36 -25 64 -51 83s-58 29 -97 29z" />
    <glyph glyph-name="edieresis" unicode="&#xeb;" horiz-adv-x="586" 
d="M298 -10v0c-78 0 -141 25 -190 74s-74 111 -74 184s25 135 75 186s112 76 185 76v0c74 0 135 -24 184 -72s73 -109 73 -183v0v-42h-414c7 -39 25 -70 54 -93c28 -23 64 -35 107 -35v0c33 0 63 8 88 24s45 38 58 66v0l88 -49c-49 -91 -127 -136 -234 -136zM294 416v0
c-37 0 -69 -10 -96 -31s-46 -48 -56 -81v0h300c-8 36 -25 64 -51 83s-58 29 -97 29zM268 558h-107v138h107v-138zM429 558h-107v138h107v-138z" />
    <glyph glyph-name="igrave" unicode="&#xec;" horiz-adv-x="210" 
d="M159 0h-108v500h108v-500zM158 554h-82l-148 166h114z" />
    <glyph glyph-name="iacute" unicode="&#xed;" horiz-adv-x="210" 
d="M136 554h-82l116 166h114zM159 0h-108v500h108v-500z" />
    <glyph glyph-name="icircumflex" unicode="&#xee;" horiz-adv-x="210" 
d="M159 0h-108v500h108v-500zM40 554h-92l119 166h75l119 -166h-91l-66 94z" />
    <glyph glyph-name="idieresis" unicode="&#xef;" horiz-adv-x="210" 
d="M263 558h-107v138h107v-138zM54 558h-108v138h108v-138zM159 0h-108v500h108v-500z" />
    <glyph glyph-name="eth" unicode="&#xf0;" horiz-adv-x="583" 
d="M231 525h-102l112 93c-41 35 -90 72 -148 112v0h155c11 -9 32 -27 63 -53v0l64 53h101l-117 -98c124 -123 186 -251 186 -384v0c0 -72 -24 -133 -73 -182s-110 -74 -182 -74v0c-70 0 -130 24 -179 73c-50 48 -75 108 -75 179v0c0 71 23 130 70 177s104 70 172 70v0
c45 0 82 -10 111 -31v0c-25 39 -58 77 -99 115v0zM186 137c29 -29 64 -44 105 -44s76 15 105 45c29 29 44 65 44 106v0c0 42 -14 78 -43 108c-29 29 -64 44 -105 44s-77 -15 -106 -44s-44 -65 -44 -108v0c0 -42 15 -78 44 -107z" />
    <glyph glyph-name="ntilde" unicode="&#xf1;" 
d="M158 0h-107v500h106v-65c37 50 88 75 154 75v0c63 0 113 -19 149 -58s54 -92 54 -160v0v-292h-108v283c0 42 -10 75 -31 99c-21 23 -51 35 -90 35v0c-37 0 -67 -13 -91 -38c-24 -26 -36 -61 -36 -104v0v-275zM178 554h-71c0 39 9 70 28 93s43 35 74 35v0
c23 0 50 -9 79 -26v0c27 -17 46 -26 57 -26v0c22 0 33 16 33 48v0h71c0 -40 -9 -71 -26 -94c-18 -23 -44 -34 -77 -34v0c-23 0 -52 11 -89 32v0c-21 13 -37 19 -48 19v0c-21 0 -31 -16 -31 -47v0z" />
    <glyph glyph-name="ograve" unicode="&#xf2;" horiz-adv-x="587" 
d="M477 66c-51 -51 -112 -76 -184 -76s-133 25 -183 76c-51 50 -76 111 -76 184s25 134 76 185c50 50 111 75 183 75s133 -25 184 -75c51 -51 76 -112 76 -185s-25 -134 -76 -184zM185 137c29 -31 65 -47 108 -47s79 16 109 47s45 69 45 113s-15 82 -45 113s-66 47 -109 47
s-79 -16 -108 -47c-30 -31 -45 -69 -45 -113s15 -82 45 -113zM339 554h-82l-148 166h114z" />
    <glyph glyph-name="oacute" unicode="&#xf3;" horiz-adv-x="587" 
d="M326 554h-82l116 166h114zM477 66c-51 -51 -112 -76 -184 -76s-133 25 -183 76c-51 50 -76 111 -76 184s25 134 76 185c50 50 111 75 183 75s133 -25 184 -75c51 -51 76 -112 76 -185s-25 -134 -76 -184zM185 137c29 -31 65 -47 108 -47s79 16 109 47s45 69 45 113
s-15 82 -45 113s-66 47 -109 47s-79 -16 -108 -47c-30 -31 -45 -69 -45 -113s15 -82 45 -113z" />
    <glyph glyph-name="ocircumflex" unicode="&#xf4;" horiz-adv-x="587" 
d="M477 66c-51 -51 -112 -76 -184 -76s-133 25 -183 76c-51 50 -76 111 -76 184s25 134 76 185c50 50 111 75 183 75s133 -25 184 -75c51 -51 76 -112 76 -185s-25 -134 -76 -184zM185 137c29 -31 65 -47 108 -47s79 16 109 47s45 69 45 113s-15 82 -45 113s-66 47 -109 47
s-79 -16 -108 -47c-30 -31 -45 -69 -45 -113s15 -82 45 -113zM228 554h-92l119 166h75l119 -166h-91l-66 94z" />
    <glyph glyph-name="otilde" unicode="&#xf5;" horiz-adv-x="587" 
d="M477 66c-51 -51 -112 -76 -184 -76s-133 25 -183 76c-51 50 -76 111 -76 184s25 134 76 185c50 50 111 75 183 75s133 -25 184 -75c51 -51 76 -112 76 -185s-25 -134 -76 -184zM185 137c29 -31 65 -47 108 -47s79 16 109 47s45 69 45 113s-15 82 -45 113s-66 47 -109 47
s-79 -16 -108 -47c-30 -31 -45 -69 -45 -113s15 -82 45 -113zM197 554h-71c0 39 9 70 28 93s43 35 74 35v0c23 0 50 -9 79 -26v0c27 -17 46 -26 57 -26v0c22 0 33 16 33 48v0h71c0 -40 -9 -71 -26 -94c-18 -23 -44 -34 -77 -34v0c-23 0 -52 11 -89 32v0
c-21 13 -37 19 -48 19v0c-21 0 -31 -16 -31 -47v0z" />
    <glyph glyph-name="odieresis" unicode="&#xf6;" horiz-adv-x="587" 
d="M429 558h-107v138h107v-138zM268 558h-107v138h107v-138zM477 66c-51 -51 -112 -76 -184 -76s-133 25 -183 76c-51 50 -76 111 -76 184s25 134 76 185c50 50 111 75 183 75s133 -25 184 -75c51 -51 76 -112 76 -185s-25 -134 -76 -184zM185 137c29 -31 65 -47 108 -47
s79 16 109 47s45 69 45 113s-15 82 -45 113s-66 47 -109 47s-79 -16 -108 -47c-30 -31 -45 -69 -45 -113s15 -82 45 -113z" />
    <glyph glyph-name="divide" unicode="&#xf7;" horiz-adv-x="457" 
d="M414 319h-370v92h370v-92zM275 456h-91v118h91v-118zM275 155h-91v118h91v-118z" />
    <glyph glyph-name="oslash" unicode="&#xf8;" horiz-adv-x="587" 
d="M293 -10v0c-45 0 -87 10 -125 31v0l-17 -21h-111l60 76c-44 49 -66 107 -66 174v0c0 73 25 134 76 185c50 50 111 75 183 75v0c45 0 86 -10 124 -31v0l17 21h111l-59 -75c45 -50 67 -108 67 -175v0c0 -73 -25 -134 -76 -184c-51 -51 -112 -76 -184 -76zM293 90v0
c43 0 80 16 110 47s45 69 45 113v0c0 35 -9 65 -28 92v0l-188 -240c18 -8 38 -12 61 -12zM139 250v0c0 -34 9 -64 26 -91v0l188 239c-18 8 -38 12 -60 12v0c-43 0 -80 -15 -109 -46c-30 -31 -45 -69 -45 -114z" />
    <glyph glyph-name="ugrave" unicode="&#xf9;" 
d="M255 -10v0c-65 0 -116 19 -151 58c-36 39 -54 92 -54 161v0v291h109v-282c0 -42 10 -75 31 -98c21 -24 51 -36 90 -36v0c36 0 66 13 90 39c24 25 36 59 36 102v0v275h107v-500h-106v65c-37 -50 -87 -75 -152 -75zM327 554h-82l-148 166h114z" />
    <glyph glyph-name="uacute" unicode="&#xfa;" 
d="M255 -10v0c-65 0 -116 19 -151 58c-36 39 -54 92 -54 161v0v291h109v-282c0 -42 10 -75 31 -98c21 -24 51 -36 90 -36v0c36 0 66 13 90 39c24 25 36 59 36 102v0v275h107v-500h-106v65c-37 -50 -87 -75 -152 -75zM313 554h-82l116 166h114z" />
    <glyph glyph-name="ucircumflex" unicode="&#xfb;" 
d="M255 -10v0c-65 0 -116 19 -151 58c-36 39 -54 92 -54 161v0v291h109v-282c0 -42 10 -75 31 -98c21 -24 51 -36 90 -36v0c36 0 66 13 90 39c24 25 36 59 36 102v0v275h107v-500h-106v65c-37 -50 -87 -75 -152 -75zM214 554h-92l119 166h75l119 -166h-91l-66 94z" />
    <glyph glyph-name="udieresis" unicode="&#xfc;" 
d="M255 -10v0c-65 0 -116 19 -151 58c-36 39 -54 92 -54 161v0v291h109v-282c0 -42 10 -75 31 -98c21 -24 51 -36 90 -36v0c36 0 66 13 90 39c24 25 36 59 36 102v0v275h107v-500h-106v65c-37 -50 -87 -75 -152 -75zM254 558h-107v138h107v-138zM415 558h-107v138h107v-138z
" />
    <glyph glyph-name="yacute" unicode="&#xfd;" horiz-adv-x="556" 
d="M231 -231h-110l107 257l-207 474h115l146 -347l138 347h113zM312 554h-82l116 166h114z" />
    <glyph glyph-name="thorn" unicode="&#xfe;" horiz-adv-x="604" 
d="M326 -10v0c-72 0 -128 27 -169 81v0v-301h-105v960h105v-301c41 54 98 81 169 81v0c68 0 126 -24 174 -71s72 -110 72 -187s-24 -140 -73 -189s-106 -73 -173 -73zM310 88v0c45 0 83 16 113 48s45 71 45 116s-15 84 -44 115c-30 31 -68 46 -113 46v0
c-45 0 -82 -16 -112 -47c-31 -32 -46 -70 -46 -115s15 -83 46 -115s68 -48 111 -48z" />
    <glyph glyph-name="ydieresis" unicode="&#xff;" horiz-adv-x="556" 
d="M231 -231h-110l107 257l-207 474h115l146 -347l138 347h113zM254 558h-107v138h107v-138zM415 558h-107v138h107v-138z" />
    <glyph glyph-name="Amacron" unicode="&#x100;" horiz-adv-x="696" 
d="M138 0h-114l268 730h112l268 -730h-113l-57 156h-308zM464 260l-116 320l-116 -320h232zM478 784h-264v77h264v-77z" />
    <glyph glyph-name="amacron" unicode="&#x101;" horiz-adv-x="608" 
d="M283 -10v0c-67 0 -125 24 -174 73c-50 48 -75 110 -75 187v0c0 77 25 140 74 188s108 72 176 72v0c33 0 64 -7 94 -20c29 -13 53 -32 72 -55v0v65h107v-500h-107v69c-19 -25 -44 -44 -73 -58c-30 -14 -61 -21 -94 -21zM298 88v0c45 0 83 16 113 48c30 31 45 70 45 115
s-15 84 -45 115s-68 47 -113 47v0c-45 0 -82 -16 -112 -47c-31 -31 -46 -70 -46 -115s15 -84 46 -115c30 -32 67 -48 112 -48zM450 554h-264v77h264v-77z" />
    <glyph glyph-name="Abreve" unicode="&#x102;" horiz-adv-x="696" 
d="M138 0h-114l268 730h112l268 -730h-113l-57 156h-308zM464 260l-116 320l-116 -320h232zM344 780v0c-53 0 -93 15 -120 46s-41 71 -41 120v0h76c0 -65 28 -99 85 -100v0c27 1 48 10 63 27s22 42 22 73v0h77c0 -47 -15 -87 -44 -118c-30 -32 -69 -48 -118 -48z" />
    <glyph glyph-name="abreve" unicode="&#x103;" horiz-adv-x="608" 
d="M283 -10v0c-67 0 -125 24 -174 73c-50 48 -75 110 -75 187v0c0 77 25 140 74 188s108 72 176 72v0c33 0 64 -7 94 -20c29 -13 53 -32 72 -55v0v65h107v-500h-107v69c-19 -25 -44 -44 -73 -58c-30 -14 -61 -21 -94 -21zM298 88v0c45 0 83 16 113 48c30 31 45 70 45 115
s-15 84 -45 115s-68 47 -113 47v0c-45 0 -82 -16 -112 -47c-31 -31 -46 -70 -46 -115s15 -84 46 -115c30 -32 67 -48 112 -48zM304 549v0c-53 0 -93 15 -120 46s-41 71 -41 120v0h76c0 -65 28 -99 85 -100v0c27 1 48 10 63 27s22 42 22 73v0h77c0 -47 -15 -87 -44 -118
c-30 -32 -69 -48 -118 -48z" />
    <glyph glyph-name="Aogonek" unicode="&#x104;" horiz-adv-x="696" 
d="M593 -222v0c-41 0 -74 10 -100 30s-39 45 -39 75v0c0 47 33 90 100 130v0l-52 143h-308l-56 -156h-114l268 730h112l268 -730h-3l2 -1c-53 -33 -88 -57 -103 -70c-16 -14 -24 -28 -24 -42v0c0 -23 16 -35 49 -35v0c20 0 42 10 67 31v0l71 -48c-43 -38 -89 -57 -138 -57z
M464 260l-116 320l-116 -320h232z" />
    <glyph glyph-name="aogonek" unicode="&#x105;" horiz-adv-x="608" 
d="M283 -10v0c-67 0 -125 24 -174 73c-50 48 -75 110 -75 187v0c0 77 25 140 74 188s108 72 176 72v0c33 0 64 -7 94 -20c29 -13 53 -32 72 -55v0v65h107v-500h-3c-61 -43 -92 -79 -92 -108v0c0 -12 4 -22 12 -29s18 -11 31 -11v0c19 0 38 10 57 29v0l62 -55
c-38 -33 -79 -50 -122 -50v0c-39 0 -69 11 -92 32s-34 46 -35 77v0c-1 44 24 86 75 127v0v57c-19 -25 -44 -44 -73 -58c-30 -14 -61 -21 -94 -21zM298 88v0c45 0 83 16 113 48c30 31 45 70 45 115s-15 84 -45 115s-68 47 -113 47v0c-45 0 -82 -16 -112 -47
c-31 -31 -46 -70 -46 -115s15 -84 46 -115c30 -32 67 -48 112 -48z" />
    <glyph glyph-name="Cacute" unicode="&#x106;" horiz-adv-x="761" 
d="M446 784h-82l116 166h114zM410 -10v0c-107 0 -196 36 -267 109c-72 73 -108 161 -108 266v0c0 106 36 195 109 267s161 108 266 108v0c68 0 131 -17 188 -50s102 -78 135 -134v0l-95 -59c-23 43 -54 77 -93 102c-39 24 -84 36 -135 36v0c-75 0 -138 -26 -189 -78
c-51 -53 -77 -117 -77 -192v0c0 -75 26 -138 77 -190s113 -78 188 -78v0c55 0 102 14 143 41c40 27 71 63 93 109v0l98 -52c-32 -63 -77 -112 -136 -149s-124 -56 -197 -56z" />
    <glyph glyph-name="cacute" unicode="&#x107;" horiz-adv-x="561" 
d="M327 554h-82l116 166h114zM295 -10v0c-73 0 -135 25 -185 76c-51 50 -76 111 -76 184v0c0 73 25 135 76 185c50 50 112 75 185 75v0c55 0 103 -14 145 -42s73 -65 92 -111v0l-96 -41c-13 29 -31 52 -56 69s-53 25 -85 25v0c-44 0 -81 -15 -111 -46s-45 -69 -45 -114
s15 -82 46 -113c30 -31 67 -47 112 -47v0c33 0 61 9 86 27s43 42 55 71v0l97 -41c-21 -48 -52 -86 -93 -114c-41 -29 -90 -43 -147 -43z" />
    <glyph glyph-name="Ccircumflex" unicode="&#x108;" horiz-adv-x="761" 
d="M410 -10v0c-107 0 -196 36 -267 109c-72 73 -108 161 -108 266v0c0 106 36 195 109 267s161 108 266 108v0c68 0 131 -17 188 -50s102 -78 135 -134v0l-95 -59c-23 43 -54 77 -93 102c-39 24 -84 36 -135 36v0c-75 0 -138 -26 -189 -78c-51 -53 -77 -117 -77 -192v0
c0 -75 26 -138 77 -190s113 -78 188 -78v0c55 0 102 14 143 41c40 27 71 63 93 109v0l98 -52c-32 -63 -77 -112 -136 -149s-124 -56 -197 -56zM347 784h-92l119 166h75l119 -166h-91l-66 94z" />
    <glyph glyph-name="ccircumflex" unicode="&#x109;" horiz-adv-x="561" 
d="M295 -10v0c-73 0 -135 25 -185 76c-51 50 -76 111 -76 184v0c0 73 25 135 76 185c50 50 112 75 185 75v0c55 0 103 -14 145 -42s73 -65 92 -111v0l-96 -41c-13 29 -31 52 -56 69s-53 25 -85 25v0c-44 0 -81 -15 -111 -46s-45 -69 -45 -114s15 -82 46 -113
c30 -31 67 -47 112 -47v0c33 0 61 9 86 27s43 42 55 71v0l97 -41c-21 -48 -52 -86 -93 -114c-41 -29 -90 -43 -147 -43zM230 554h-92l119 166h75l119 -166h-91l-66 94z" />
    <glyph glyph-name="Cdotaccent" unicode="&#x10a;" horiz-adv-x="761" 
d="M410 -10v0c-107 0 -196 36 -267 109c-72 73 -108 161 -108 266v0c0 106 36 195 109 267s161 108 266 108v0c68 0 131 -17 188 -50s102 -78 135 -134v0l-95 -59c-23 43 -54 77 -93 102c-39 24 -84 36 -135 36v0c-75 0 -138 -26 -189 -78c-51 -53 -77 -117 -77 -192v0
c0 -75 26 -138 77 -190s113 -78 188 -78v0c55 0 102 14 143 41c40 27 71 63 93 109v0l98 -52c-32 -63 -77 -112 -136 -149s-124 -56 -197 -56zM471 788h-107v138h107v-138z" />
    <glyph glyph-name="cdotaccent" unicode="&#x10b;" horiz-adv-x="561" 
d="M295 -10v0c-73 0 -135 25 -185 76c-51 50 -76 111 -76 184v0c0 73 25 135 76 185c50 50 112 75 185 75v0c55 0 103 -14 145 -42s73 -65 92 -111v0l-96 -41c-13 29 -31 52 -56 69s-53 25 -85 25v0c-44 0 -81 -15 -111 -46s-45 -69 -45 -114s15 -82 46 -113
c30 -31 67 -47 112 -47v0c33 0 61 9 86 27s43 42 55 71v0l97 -41c-21 -48 -52 -86 -93 -114c-41 -29 -90 -43 -147 -43zM349 558h-107v138h107v-138z" />
    <glyph glyph-name="Ccaron" unicode="&#x10c;" horiz-adv-x="761" 
d="M410 -10v0c-107 0 -196 36 -267 109c-72 73 -108 161 -108 266v0c0 106 36 195 109 267s161 108 266 108v0c68 0 131 -17 188 -50s102 -78 135 -134v0l-95 -59c-23 43 -54 77 -93 102c-39 24 -84 36 -135 36v0c-75 0 -138 -26 -189 -78c-51 -53 -77 -117 -77 -192v0
c0 -75 26 -138 77 -190s113 -78 188 -78v0c55 0 102 14 143 41c40 27 71 63 93 109v0l98 -52c-32 -63 -77 -112 -136 -149s-124 -56 -197 -56zM446 784h-75l-119 166h92l64 -94l66 94h91z" />
    <glyph glyph-name="ccaron" unicode="&#x10d;" horiz-adv-x="561" 
d="M295 -10v0c-73 0 -135 25 -185 76c-51 50 -76 111 -76 184v0c0 73 25 135 76 185c50 50 112 75 185 75v0c55 0 103 -14 145 -42s73 -65 92 -111v0l-96 -41c-13 29 -31 52 -56 69s-53 25 -85 25v0c-44 0 -81 -15 -111 -46s-45 -69 -45 -114s15 -82 46 -113
c30 -31 67 -47 112 -47v0c33 0 61 9 86 27s43 42 55 71v0l97 -41c-21 -48 -52 -86 -93 -114c-41 -29 -90 -43 -147 -43zM331 554h-75l-119 166h92l64 -94l66 94h91z" />
    <glyph glyph-name="Dcaron" unicode="&#x10e;" horiz-adv-x="676" 
d="M262 0h-206v730h202c116 0 209 -34 279 -103c69 -69 104 -156 104 -262v0c0 -105 -36 -192 -107 -261c-72 -69 -163 -104 -272 -104v0zM247 630v0h-82v-529h86c83 0 150 25 202 75s78 113 78 189v0c0 79 -25 143 -75 192s-120 73 -209 73zM317 784h-75l-119 166h92
l64 -94l66 94h91z" />
    <glyph glyph-name="dcaron" unicode="&#x10f;" horiz-adv-x="662" 
d="M283 -10v0c-67 0 -125 24 -174 73c-50 48 -75 110 -75 187v0c0 77 25 140 74 188s108 72 176 72v0c33 0 64 -7 94 -20c29 -13 53 -32 72 -55v0v295h106v-730h-106v69c-19 -25 -44 -44 -73 -58c-30 -14 -61 -21 -94 -21zM298 88v0c45 0 83 16 113 48c30 31 45 70 45 115
s-15 84 -45 115s-68 47 -113 47v0c-45 0 -82 -16 -112 -47c-31 -31 -46 -70 -46 -115s15 -84 46 -115c30 -32 67 -48 112 -48zM679 553h-69l32 177h91z" />
    <glyph glyph-name="Dcroat" unicode="&#x110;" horiz-adv-x="713" 
d="M94 318h-72v97h72v315h201c116 0 209 -34 279 -103c69 -69 104 -156 104 -262v0c0 -105 -36 -192 -107 -261c-72 -69 -163 -104 -272 -104v0h-205v318zM283 630v0h-80v-215h188v-97h-188v-217h84c83 0 151 25 204 75c52 50 78 113 78 189v0c0 79 -25 143 -76 192
s-121 73 -210 73z" />
    <glyph glyph-name="dcroat" unicode="&#x111;" horiz-adv-x="617" 
d="M450 562h-68v78h68v90h106v-90h60v-78h-60v-562h-106v69c-19 -25 -44 -44 -73 -58c-30 -14 -61 -21 -94 -21v0c-67 0 -125 24 -174 73c-50 48 -75 110 -75 187v0c0 77 25 140 74 188s108 72 176 72v0c33 0 64 -7 94 -20c29 -13 53 -32 72 -55v0v127zM298 88v0
c45 0 83 16 113 48c30 31 45 70 45 115s-15 84 -45 115s-68 47 -113 47v0c-45 0 -82 -16 -112 -47c-31 -31 -46 -70 -46 -115s15 -84 46 -115c30 -32 67 -48 112 -48z" />
    <glyph glyph-name="Emacron" unicode="&#x112;" horiz-adv-x="540" 
d="M494 0h-438v730h438v-103h-329v-209h329v-103h-329v-211h329v-104zM404 784h-264v77h264v-77z" />
    <glyph glyph-name="emacron" unicode="&#x113;" horiz-adv-x="586" 
d="M298 -10v0c-78 0 -141 25 -190 74s-74 111 -74 184s25 135 75 186s112 76 185 76v0c74 0 135 -24 184 -72s73 -109 73 -183v0v-42h-414c7 -39 25 -70 54 -93c28 -23 64 -35 107 -35v0c33 0 63 8 88 24s45 38 58 66v0l88 -49c-49 -91 -127 -136 -234 -136zM294 416v0
c-37 0 -69 -10 -96 -31s-46 -48 -56 -81v0h300c-8 36 -25 64 -51 83s-58 29 -97 29zM427 554h-264v77h264v-77z" />
    <glyph glyph-name="Ebreve" unicode="&#x114;" horiz-adv-x="540" 
d="M494 0h-438v730h438v-103h-329v-209h329v-103h-329v-211h329v-104zM275 780v0c-53 0 -93 15 -120 46s-41 71 -41 120v0h76c0 -65 28 -99 85 -100v0c27 1 48 10 63 27s22 42 22 73v0h77c0 -47 -15 -87 -44 -118c-30 -32 -69 -48 -118 -48z" />
    <glyph glyph-name="ebreve" unicode="&#x115;" horiz-adv-x="586" 
d="M298 -10v0c-78 0 -141 25 -190 74s-74 111 -74 184s25 135 75 186s112 76 185 76v0c74 0 135 -24 184 -72s73 -109 73 -183v0v-42h-414c7 -39 25 -70 54 -93c28 -23 64 -35 107 -35v0c33 0 63 8 88 24s45 38 58 66v0l88 -49c-49 -91 -127 -136 -234 -136zM295 549v0
c-53 0 -93 15 -120 46s-41 71 -41 120v0h76c0 -65 28 -99 85 -100v0c27 1 48 10 63 27s22 42 22 73v0h77c0 -47 -15 -87 -44 -118c-30 -32 -69 -48 -118 -48zM294 416v0c-37 0 -69 -10 -96 -31s-46 -48 -56 -81v0h300c-8 36 -25 64 -51 83s-58 29 -97 29z" />
    <glyph glyph-name="Edotaccent" unicode="&#x116;" horiz-adv-x="540" 
d="M494 0h-438v730h438v-103h-329v-209h329v-103h-329v-211h329v-104zM342 788h-107v138h107v-138z" />
    <glyph glyph-name="edotaccent" unicode="&#x117;" horiz-adv-x="586" 
d="M298 -10v0c-78 0 -141 25 -190 74s-74 111 -74 184s25 135 75 186s112 76 185 76v0c74 0 135 -24 184 -72s73 -109 73 -183v0v-42h-414c7 -39 25 -70 54 -93c28 -23 64 -35 107 -35v0c33 0 63 8 88 24s45 38 58 66v0l88 -49c-49 -91 -127 -136 -234 -136zM294 416v0
c-37 0 -69 -10 -96 -31s-46 -48 -56 -81v0h300c-8 36 -25 64 -51 83s-58 29 -97 29zM351 558h-107v138h107v-138z" />
    <glyph glyph-name="Eogonek" unicode="&#x118;" horiz-adv-x="540" 
d="M356 0h-300v730h438v-103h-329v-209h329v-103h-329v-211h329v-104h-2l2 -1c-53 -33 -88 -57 -103 -70c-16 -14 -24 -28 -24 -42v0c0 -23 16 -35 49 -35v0c20 0 42 10 67 31v0l71 -48c-43 -38 -89 -57 -138 -57v0c-41 0 -74 10 -100 30s-39 45 -39 75v0c0 43 26 82 79 117
v0z" />
    <glyph glyph-name="eogonek" unicode="&#x119;" horiz-adv-x="586" 
d="M310 -217v0c-41 0 -74 10 -100 30s-39 45 -39 75v0c0 39 22 75 67 108v0c-62 13 -111 42 -148 88s-56 101 -56 164v0c0 73 25 135 75 186s112 76 185 76v0c74 0 135 -24 184 -72s73 -109 73 -183v0v-42h-414c7 -39 25 -70 54 -93c28 -23 64 -35 107 -35v0
c33 0 63 8 88 24s45 38 58 66v0l88 -49c-34 -62 -83 -103 -147 -124v0c-52 -32 -86 -55 -101 -68c-15 -14 -23 -28 -23 -42v0c0 -23 16 -35 49 -35v0c20 0 42 10 67 31v0l71 -48c-43 -38 -89 -57 -138 -57zM294 416v0c-37 0 -69 -10 -96 -31s-46 -48 -56 -81v0h300
c-8 36 -25 64 -51 83s-58 29 -97 29z" />
    <glyph glyph-name="Ecaron" unicode="&#x11a;" horiz-adv-x="541" 
d="M494 0h-438v730h438v-103h-329v-209h329v-103h-329v-211h329v-104zM308 784h-75l-119 166h92l64 -94l66 94h91z" />
    <glyph glyph-name="ecaron" unicode="&#x11b;" horiz-adv-x="586" 
d="M298 -10v0c-78 0 -141 25 -190 74s-74 111 -74 184s25 135 75 186s112 76 185 76v0c74 0 135 -24 184 -72s73 -109 73 -183v0v-42h-414c7 -39 25 -70 54 -93c28 -23 64 -35 107 -35v0c33 0 63 8 88 24s45 38 58 66v0l88 -49c-49 -91 -127 -136 -234 -136zM334 554h-75
l-119 166h92l64 -94l66 94h91zM294 416v0c-37 0 -69 -10 -96 -31s-46 -48 -56 -81v0h300c-8 36 -25 64 -51 83s-58 29 -97 29z" />
    <glyph glyph-name="Gcircumflex" unicode="&#x11c;" horiz-adv-x="811" 
d="M414 -10v0c-109 0 -199 37 -271 110s-108 162 -108 265v0c0 105 36 194 108 267c71 72 161 108 270 108v0c71 0 136 -17 194 -51c57 -34 102 -80 134 -137v0l-95 -57c-24 45 -56 79 -95 104c-40 25 -86 37 -138 37v0c-78 0 -142 -26 -193 -79s-76 -117 -76 -192
s26 -139 77 -191c51 -53 116 -79 193 -79v0c67 0 123 19 166 56s70 85 82 146v0h-262v103h376v-39c0 -103 -33 -191 -99 -263s-154 -108 -263 -108zM343 784h-92l119 166h75l119 -166h-91l-66 94z" />
    <glyph glyph-name="gcircumflex" unicode="&#x11d;" horiz-adv-x="609" 
d="M283 -10v0c-67 0 -125 24 -174 73c-50 48 -75 110 -75 187v0c0 77 25 140 74 188s108 72 176 72v0c33 0 64 -7 93 -21s54 -33 73 -57v0v68h107v-488c0 -75 -22 -137 -67 -184s-107 -71 -185 -71v0c-60 0 -111 13 -154 39c-43 25 -74 59 -94 102v0l99 47
c27 -60 77 -90 149 -90v0c45 0 80 15 107 44c26 29 39 65 39 109v0v63c-19 -25 -44 -45 -74 -59c-30 -15 -61 -22 -94 -22zM298 88v0c45 0 83 16 113 48c30 31 45 70 45 115s-15 84 -45 115s-68 47 -113 47v0c-45 0 -82 -16 -112 -47c-31 -31 -46 -70 -46 -115
s15 -84 46 -115c30 -32 67 -48 112 -48zM240 554h-92l119 166h75l119 -166h-91l-66 94z" />
    <glyph glyph-name="Gbreve" unicode="&#x11e;" horiz-adv-x="811" 
d="M414 -10v0c-109 0 -199 37 -271 110s-108 162 -108 265v0c0 105 36 194 108 267c71 72 161 108 270 108v0c71 0 136 -17 194 -51c57 -34 102 -80 134 -137v0l-95 -57c-24 45 -56 79 -95 104c-40 25 -86 37 -138 37v0c-78 0 -142 -26 -193 -79s-76 -117 -76 -192
s26 -139 77 -191c51 -53 116 -79 193 -79v0c67 0 123 19 166 56s70 85 82 146v0h-262v103h376v-39c0 -103 -33 -191 -99 -263s-154 -108 -263 -108zM406 780v0c-53 0 -93 15 -120 46s-41 71 -41 120v0h76c0 -65 28 -99 85 -100v0c27 1 48 10 63 27s22 42 22 73v0h77
c0 -47 -15 -87 -44 -118c-30 -32 -69 -48 -118 -48z" />
    <glyph glyph-name="gbreve" unicode="&#x11f;" horiz-adv-x="609" 
d="M283 -10v0c-67 0 -125 24 -174 73c-50 48 -75 110 -75 187v0c0 77 25 140 74 188s108 72 176 72v0c33 0 64 -7 93 -21s54 -33 73 -57v0v68h107v-488c0 -75 -22 -137 -67 -184s-107 -71 -185 -71v0c-60 0 -111 13 -154 39c-43 25 -74 59 -94 102v0l99 47
c27 -60 77 -90 149 -90v0c45 0 80 15 107 44c26 29 39 65 39 109v0v63c-19 -25 -44 -45 -74 -59c-30 -15 -61 -22 -94 -22zM298 88v0c45 0 83 16 113 48c30 31 45 70 45 115s-15 84 -45 115s-68 47 -113 47v0c-45 0 -82 -16 -112 -47c-31 -31 -46 -70 -46 -115
s15 -84 46 -115c30 -32 67 -48 112 -48zM304 549v0c-53 0 -93 15 -120 46s-41 71 -41 120v0h76c0 -65 28 -99 85 -100v0c27 1 48 10 63 27s22 42 22 73v0h77c0 -47 -15 -87 -44 -118c-30 -32 -69 -48 -118 -48z" />
    <glyph glyph-name="Gdotaccent" unicode="&#x120;" horiz-adv-x="811" 
d="M414 -10v0c-109 0 -199 37 -271 110s-108 162 -108 265v0c0 105 36 194 108 267c71 72 161 108 270 108v0c71 0 136 -17 194 -51c57 -34 102 -80 134 -137v0l-95 -57c-24 45 -56 79 -95 104c-40 25 -86 37 -138 37v0c-78 0 -142 -26 -193 -79s-76 -117 -76 -192
s26 -139 77 -191c51 -53 116 -79 193 -79v0c67 0 123 19 166 56s70 85 82 146v0h-262v103h376v-39c0 -103 -33 -191 -99 -263s-154 -108 -263 -108zM464 788h-107v138h107v-138z" />
    <glyph glyph-name="gdotaccent" unicode="&#x121;" horiz-adv-x="609" 
d="M283 -10v0c-67 0 -125 24 -174 73c-50 48 -75 110 -75 187v0c0 77 25 140 74 188s108 72 176 72v0c33 0 64 -7 93 -21s54 -33 73 -57v0v68h107v-488c0 -75 -22 -137 -67 -184s-107 -71 -185 -71v0c-60 0 -111 13 -154 39c-43 25 -74 59 -94 102v0l99 47
c27 -60 77 -90 149 -90v0c45 0 80 15 107 44c26 29 39 65 39 109v0v63c-19 -25 -44 -45 -74 -59c-30 -15 -61 -22 -94 -22zM298 88v0c45 0 83 16 113 48c30 31 45 70 45 115s-15 84 -45 115s-68 47 -113 47v0c-45 0 -82 -16 -112 -47c-31 -31 -46 -70 -46 -115
s15 -84 46 -115c30 -32 67 -48 112 -48zM346 558h-107v138h107v-138z" />
    <glyph glyph-name="uni0122" unicode="&#x122;" horiz-adv-x="811" 
d="M414 -10v0c-109 0 -199 37 -271 110s-108 162 -108 265v0c0 105 36 194 108 267c71 72 161 108 270 108v0c71 0 136 -17 194 -51c57 -34 102 -80 134 -137v0l-95 -57c-24 45 -56 79 -95 104c-40 25 -86 37 -138 37v0c-78 0 -142 -26 -193 -79s-76 -117 -76 -192
s26 -139 77 -191c51 -53 116 -79 193 -79v0c67 0 123 19 166 56s70 85 82 146v0h-262v103h376v-39c0 -103 -33 -191 -99 -263s-154 -108 -263 -108zM467 -52l-65 -204h-69l38 204h96z" />
    <glyph glyph-name="uni0123" unicode="&#x123;" horiz-adv-x="609" 
d="M283 -10v0c-67 0 -125 24 -174 73c-50 48 -75 110 -75 187v0c0 77 25 140 74 188s108 72 176 72v0c33 0 64 -7 93 -21s54 -33 73 -57v0v68h107v-488c0 -75 -22 -137 -67 -184s-107 -71 -185 -71v0c-60 0 -111 13 -154 39c-43 25 -74 59 -94 102v0l99 47
c27 -60 77 -90 149 -90v0c45 0 80 15 107 44c26 29 39 65 39 109v0v63c-19 -25 -44 -45 -74 -59c-30 -15 -61 -22 -94 -22zM298 88v0c45 0 83 16 113 48c30 31 45 70 45 115s-15 84 -45 115s-68 47 -113 47v0c-45 0 -82 -16 -112 -47c-31 -31 -46 -70 -46 -115
s15 -84 46 -115c30 -32 67 -48 112 -48zM394 754l-65 -204h-69l38 204h96z" />
    <glyph glyph-name="Hcircumflex" unicode="&#x124;" horiz-adv-x="659" 
d="M603 0h-108v315h-330v-315h-109v730h109v-311h330v311h108v-730zM264 784h-92l119 166h75l119 -166h-91l-66 94z" />
    <glyph glyph-name="hcircumflex" unicode="&#x125;" horiz-adv-x="565" 
d="M159 0h-107v730h106v-293c37 49 89 73 154 73v0c63 0 113 -19 149 -58s54 -92 54 -160v0v-292h-109v282c0 43 -10 76 -30 100c-21 23 -51 35 -91 35v0c-37 0 -67 -13 -90 -38c-24 -26 -36 -61 -36 -104v0v-275zM39 779h-92l119 166h75l119 -166h-91l-66 94z" />
    <glyph glyph-name="Hbar" unicode="&#x126;" horiz-adv-x="709" 
d="M80 533h-62v83h62v114h109v-114h330v114h108v-114h60v-83h-60v-533h-108v315h-330v-315h-109v533zM519 533h-330v-114h330v114z" />
    <glyph glyph-name="hbar" unicode="&#x127;" horiz-adv-x="575" 
d="M62 566h-58v78h58v86h106v-86h70v-78h-70v-129c37 49 89 73 154 73v0c63 0 113 -19 149 -58s54 -92 54 -160v0v-292h-109v282c0 43 -10 76 -30 100c-21 23 -51 35 -91 35v0c-37 0 -67 -13 -90 -38c-24 -26 -36 -61 -36 -104v0v-275h-107v566z" />
    <glyph glyph-name="Itilde" unicode="&#x128;" horiz-adv-x="235" 
d="M172 0h-109v730h109v-730zM25 784h-71c0 39 9 70 28 93s43 35 74 35v0c23 0 50 -9 79 -26v0c27 -17 46 -26 57 -26v0c22 0 33 16 33 48v0h71c0 -40 -9 -71 -26 -94c-18 -23 -44 -34 -77 -34v0c-23 0 -52 11 -89 32v0c-21 13 -37 19 -48 19v0c-21 0 -31 -16 -31 -47v0z
" />
    <glyph glyph-name="itilde" unicode="&#x129;" horiz-adv-x="210" 
d="M159 0h-108v500h108v-500zM7 554h-71c0 39 9 70 28 93s43 35 74 35v0c23 0 50 -9 79 -26v0c27 -17 46 -26 57 -26v0c22 0 33 16 33 48v0h71c0 -40 -9 -71 -26 -94c-18 -23 -44 -34 -77 -34v0c-23 0 -52 11 -89 32v0c-21 13 -37 19 -48 19v0c-21 0 -31 -16 -31 -47v0z" />
    <glyph glyph-name="Imacron" unicode="&#x12a;" horiz-adv-x="235" 
d="M172 0h-109v730h109v-730zM249 784h-264v77h264v-77z" />
    <glyph glyph-name="imacron" unicode="&#x12b;" horiz-adv-x="210" 
d="M159 0h-108v500h108v-500zM237 554h-264v77h264v-77z" />
    <glyph glyph-name="Ibreve" unicode="&#x12c;" horiz-adv-x="235" 
d="M172 0h-109v730h109v-730zM115 780v0c-53 0 -93 15 -120 46s-41 71 -41 120v0h76c0 -65 28 -99 85 -100v0c27 1 48 10 63 27s22 42 22 73v0h77c0 -47 -15 -87 -44 -118c-30 -32 -69 -48 -118 -48z" />
    <glyph glyph-name="ibreve" unicode="&#x12d;" horiz-adv-x="210" 
d="M159 0h-108v500h108v-500zM104 549v0c-53 0 -93 15 -120 46s-41 71 -41 120v0h76c0 -65 28 -99 85 -100v0c27 1 48 10 63 27s22 42 22 73v0h77c0 -47 -15 -87 -44 -118c-30 -32 -69 -48 -118 -48z" />
    <glyph glyph-name="Iogonek" unicode="&#x12e;" horiz-adv-x="235" 
d="M118 -224v0c-39 0 -69 11 -92 32s-34 46 -35 77v0c-1 43 23 85 72 124v0v721h109v-730h-2c-61 -43 -92 -79 -92 -108v0c0 -12 4 -22 12 -29s18 -11 31 -11v0c19 0 38 10 57 29v0l62 -55c-38 -33 -79 -50 -122 -50z" />
    <glyph glyph-name="iogonek" unicode="&#x12f;" horiz-adv-x="210" 
d="M105 -224v0c-39 0 -69 11 -92 32s-34 46 -35 77v0c-1 44 24 86 73 125v0v490h108v-500h-2c-61 -43 -92 -79 -92 -108v0c0 -12 4 -22 12 -29s18 -11 31 -11v0c19 0 38 10 57 29v0l62 -55c-38 -33 -79 -50 -122 -50zM159 569h-108v140h108v-140z" />
    <glyph glyph-name="Idotaccent" unicode="&#x130;" horiz-adv-x="235" 
d="M172 0h-109v730h109v-730zM171 788h-107v138h107v-138z" />
    <glyph glyph-name="dotlessi" unicode="&#x131;" horiz-adv-x="210" 
d="M159 0h-108v500h108v-500z" />
    <glyph glyph-name="IJ" unicode="&#x132;" horiz-adv-x="534" 
d="M295 0h-59v105h49c33 0 57 7 70 22c13 14 20 39 20 76v0v527h108v-525c0 -73 -14 -126 -41 -157c-28 -32 -77 -48 -147 -48v0zM160 0h-109v730h109v-730z" />
    <glyph glyph-name="ij" unicode="&#x133;" horiz-adv-x="394" 
d="M145 -210h-94v101h78c46 0 75 6 88 19c13 12 19 40 19 85v0v505h107v-506c0 -77 -14 -130 -43 -159c-29 -30 -80 -45 -155 -45v0zM159 0h-108v500h108v-500zM159 569h-108v140h108v-140zM343 569h-107v140h107v-140z" />
    <glyph glyph-name="Jcircumflex" unicode="&#x134;" horiz-adv-x="486" 
d="M233 -10v0c-50 0 -93 12 -130 37s-63 58 -77 99v0l104 45c8 -24 21 -43 39 -58c17 -15 38 -22 62 -22v0c29 0 52 10 69 30c16 20 24 47 24 80v0v529h108v-522c0 -69 -18 -122 -53 -160c-35 -39 -84 -58 -146 -58zM310 784h-92l119 166h75l119 -166h-91l-66 94z" />
    <glyph glyph-name="jcircumflex" unicode="&#x135;" horiz-adv-x="211" 
d="M-40 -230h-16v101c46 0 75 6 88 19c13 12 19 40 19 85v0v525h109v-526c0 -78 -14 -131 -43 -160s-81 -44 -157 -44v0zM40 554h-92l119 166h75l119 -166h-91l-66 94z" />
    <glyph glyph-name="uni0136" unicode="&#x136;" horiz-adv-x="631" 
d="M614 0h-124l-219 367l-106 -127v-240h-109v730h109v-348l290 348h133l-240 -288zM374 -52l-65 -204h-69l38 204h96z" />
    <glyph glyph-name="uni0137" unicode="&#x137;" horiz-adv-x="539" 
d="M517 0h-120l-155 222l-84 -92v-130h-106v730h106v-478l225 248h129l-195 -214zM323 -47l-65 -204h-69l38 204h96z" />
    <glyph glyph-name="kgreenlandic" unicode="&#x138;" horiz-adv-x="539" 
d="M517 0h-120l-155 222l-84 -92v-130h-106v500h106v-248l225 248h129l-195 -214z" />
    <glyph glyph-name="Lacute" unicode="&#x139;" horiz-adv-x="506" 
d="M460 0h-404v730h109v-626h295v-104zM147 784h-82l116 166h114z" />
    <glyph glyph-name="lacute" unicode="&#x13a;" horiz-adv-x="211" 
d="M145 779h-82l116 166h114zM159 0h-107v730h107v-730z" />
    <glyph glyph-name="uni013B" unicode="&#x13b;" horiz-adv-x="506" 
d="M460 0h-404v730h109v-626h295v-104zM305 -52l-65 -204h-69l38 204h96z" />
    <glyph glyph-name="uni013C" unicode="&#x13c;" horiz-adv-x="211" 
d="M156 -47l-65 -204h-69l38 204h96zM159 0h-107v730h107v-730z" />
    <glyph glyph-name="Lcaron" unicode="&#x13d;" horiz-adv-x="506" 
d="M460 0h-404v730h109v-626h295v-104zM330 553h-69l32 177h91z" />
    <glyph glyph-name="lcaron" unicode="&#x13e;" horiz-adv-x="263" 
d="M280 553h-69l32 177h91zM156 0h-107v730h107v-730z" />
    <glyph glyph-name="Ldot" unicode="&#x13f;" horiz-adv-x="508" 
d="M460 0h-404v730h109v-626h295v-104zM460 292h-107v138h107v-138z" />
    <glyph glyph-name="ldot" unicode="&#x140;" horiz-adv-x="377" 
d="M159 0h-107v730h107v-730zM340 195h-107v138h107v-138z" />
    <glyph glyph-name="Lslash" unicode="&#x141;" horiz-adv-x="542" 
d="M92 339l-77 -23v78l77 23v313h109v-279l126 39v-78l-126 -39v-269h295v-104h-404v339z" />
    <glyph glyph-name="lslash" unicode="&#x142;" horiz-adv-x="329" 
d="M109 340l-90 -26v78l90 26v312h108v-280l93 27v-78l-93 -27v-372h-108v340z" />
    <glyph glyph-name="Nacute" unicode="&#x143;" horiz-adv-x="713" 
d="M165 0h-109v730h123l370 -552v552h108v-730h-115l-377 561v-561zM402 784h-82l116 166h114z" />
    <glyph glyph-name="nacute" unicode="&#x144;" 
d="M158 0h-107v500h106v-65c37 50 88 75 154 75v0c63 0 113 -19 149 -58s54 -92 54 -160v0v-292h-108v283c0 42 -10 75 -31 99c-21 23 -51 35 -90 35v0c-37 0 -67 -13 -91 -38c-24 -26 -36 -61 -36 -104v0v-275zM327 554h-82l116 166h114z" />
    <glyph glyph-name="uni0145" unicode="&#x145;" horiz-adv-x="713" 
d="M165 0h-109v730h123l370 -552v552h108v-730h-115l-377 561v-561zM402 -52l-65 -204h-69l38 204h96z" />
    <glyph glyph-name="uni0146" unicode="&#x146;" 
d="M158 0h-107v500h106v-65c37 50 88 75 154 75v0c63 0 113 -19 149 -58s54 -92 54 -160v0v-292h-108v283c0 42 -10 75 -31 99c-21 23 -51 35 -90 35v0c-37 0 -67 -13 -91 -38c-24 -26 -36 -61 -36 -104v0v-275zM347 -47l-65 -204h-69l38 204h96z" />
    <glyph glyph-name="Ncaron" unicode="&#x147;" horiz-adv-x="713" 
d="M165 0h-109v730h123l370 -552v552h108v-730h-115l-377 561v-561zM395 784h-75l-119 166h92l64 -94l66 94h91z" />
    <glyph glyph-name="ncaron" unicode="&#x148;" 
d="M158 0h-107v500h106v-65c37 50 88 75 154 75v0c63 0 113 -19 149 -58s54 -92 54 -160v0v-292h-108v283c0 42 -10 75 -31 99c-21 23 -51 35 -90 35v0c-37 0 -67 -13 -91 -38c-24 -26 -36 -61 -36 -104v0v-275zM322 554h-75l-119 166h92l64 -94l66 94h91z" />
    <glyph glyph-name="Eng" unicode="&#x14a;" horiz-adv-x="713" 
d="M471 -213h-23v105h13c35 1 58 8 70 21s18 38 18 75v0v26l-384 551v-565h-109v730h123l370 -532v532h108v-740c0 -73 -14 -125 -42 -156s-76 -47 -144 -47v0z" />
    <glyph glyph-name="eng" unicode="&#x14b;" 
d="M314 -230h-16v101c46 0 76 6 89 19c13 12 19 40 19 85v0v308c0 42 -10 75 -31 99c-21 23 -51 35 -90 35v0c-37 0 -67 -13 -91 -38c-24 -26 -36 -61 -36 -104v0v-275h-107v500h106v-65c37 50 88 75 154 75v0c63 0 113 -19 149 -58s54 -92 54 -160v0v-318
c0 -78 -14 -131 -43 -160s-81 -44 -157 -44v0z" />
    <glyph glyph-name="Omacron" unicode="&#x14c;" horiz-adv-x="819" 
d="M536 784h-264v77h264v-77zM409 -10v0c-103 0 -191 37 -264 110s-110 162 -110 265s37 192 110 265s161 110 264 110v0c104 0 193 -37 266 -110s109 -162 109 -265s-36 -192 -109 -265s-162 -110 -266 -110zM409 96v0c75 0 138 26 189 79c51 52 77 115 77 190
s-26 138 -77 191s-114 79 -189 79v0c-74 0 -137 -26 -188 -79s-77 -116 -77 -191s26 -138 77 -190c51 -53 114 -79 188 -79z" />
    <glyph glyph-name="omacron" unicode="&#x14d;" horiz-adv-x="587" 
d="M426 554h-264v77h264v-77zM477 66c-51 -51 -112 -76 -184 -76s-133 25 -183 76c-51 50 -76 111 -76 184s25 134 76 185c50 50 111 75 183 75s133 -25 184 -75c51 -51 76 -112 76 -185s-25 -134 -76 -184zM185 137c29 -31 65 -47 108 -47s79 16 109 47s45 69 45 113
s-15 82 -45 113s-66 47 -109 47s-79 -16 -108 -47c-30 -31 -45 -69 -45 -113s15 -82 45 -113z" />
    <glyph glyph-name="Obreve" unicode="&#x14e;" horiz-adv-x="819" 
d="M409 -10v0c-103 0 -191 37 -264 110s-110 162 -110 265s37 192 110 265s161 110 264 110v0c104 0 193 -37 266 -110s109 -162 109 -265s-36 -192 -109 -265s-162 -110 -266 -110zM409 96v0c75 0 138 26 189 79c51 52 77 115 77 190s-26 138 -77 191s-114 79 -189 79v0
c-74 0 -137 -26 -188 -79s-77 -116 -77 -191s26 -138 77 -190c51 -53 114 -79 188 -79zM403 780v0c-53 0 -93 15 -120 46s-41 71 -41 120v0h76c0 -65 28 -99 85 -100v0c27 1 48 10 63 27s22 42 22 73v0h77c0 -47 -15 -87 -44 -118c-30 -32 -69 -48 -118 -48z" />
    <glyph glyph-name="obreve" unicode="&#x14f;" horiz-adv-x="587" 
d="M477 66c-51 -51 -112 -76 -184 -76s-133 25 -183 76c-51 50 -76 111 -76 184s25 134 76 185c50 50 111 75 183 75s133 -25 184 -75c51 -51 76 -112 76 -185s-25 -134 -76 -184zM185 137c29 -31 65 -47 108 -47s79 16 109 47s45 69 45 113s-15 82 -45 113s-66 47 -109 47
s-79 -16 -108 -47c-30 -31 -45 -69 -45 -113s15 -82 45 -113zM293 549v0c-53 0 -93 15 -120 46s-41 71 -41 120v0h76c0 -65 28 -99 85 -100v0c27 1 48 10 63 27s22 42 22 73v0h77c0 -47 -15 -87 -44 -118c-30 -32 -69 -48 -118 -48z" />
    <glyph glyph-name="Ohungarumlaut" unicode="&#x150;" horiz-adv-x="819" 
d="M355 784h-75l115 166h108zM510 784h-76l116 166h108zM409 -10v0c-103 0 -191 37 -264 110s-110 162 -110 265s37 192 110 265s161 110 264 110v0c104 0 193 -37 266 -110s109 -162 109 -265s-36 -192 -109 -265s-162 -110 -266 -110zM409 96v0c75 0 138 26 189 79
c51 52 77 115 77 190s-26 138 -77 191s-114 79 -189 79v0c-74 0 -137 -26 -188 -79s-77 -116 -77 -191s26 -138 77 -190c51 -53 114 -79 188 -79z" />
    <glyph glyph-name="ohungarumlaut" unicode="&#x151;" horiz-adv-x="587" 
d="M251 554h-75l115 166h108zM406 554h-76l116 166h108zM477 66c-51 -51 -112 -76 -184 -76s-133 25 -183 76c-51 50 -76 111 -76 184s25 134 76 185c50 50 111 75 183 75s133 -25 184 -75c51 -51 76 -112 76 -185s-25 -134 -76 -184zM185 137c29 -31 65 -47 108 -47
s79 16 109 47s45 69 45 113s-15 82 -45 113s-66 47 -109 47s-79 -16 -108 -47c-30 -31 -45 -69 -45 -113s15 -82 45 -113z" />
    <glyph glyph-name="OE" unicode="&#x152;" horiz-adv-x="1159" 
d="M1113 0h-438v109c-69 -79 -158 -119 -266 -119v0c-103 0 -191 37 -264 110s-110 162 -110 265s37 192 110 265s161 110 264 110v0c108 0 197 -40 266 -120v0v110h438v-103h-329v-209h329v-103h-329v-211h329v-104zM221 176c51 -53 114 -79 188 -79s137 26 189 79
c51 52 77 115 77 189v0v11c-3 72 -30 133 -81 183s-113 75 -185 75v0c-74 0 -137 -26 -188 -79c-52 -53 -78 -116 -78 -190s26 -137 78 -189z" />
    <glyph glyph-name="oe" unicode="&#x153;" horiz-adv-x="1001" 
d="M293 -10v0c-72 0 -133 25 -183 76c-51 50 -76 111 -76 184s25 134 76 185c50 50 111 75 183 75v0c43 0 83 -9 119 -28s66 -45 89 -78v0c49 71 118 106 207 106v0c74 0 136 -24 185 -72c49 -49 73 -110 73 -184v0v-38h-415c7 -39 25 -71 54 -95s66 -36 109 -36v0
c33 0 63 8 89 25c25 17 45 39 59 68v0l90 -40c-22 -46 -54 -82 -95 -108c-41 -27 -89 -40 -144 -40v0c-96 0 -167 35 -214 104v0c-23 -33 -52 -58 -88 -76c-36 -19 -75 -28 -118 -28zM184 137c29 -31 66 -47 109 -47s80 16 110 47s45 69 45 113v0c0 45 -15 83 -45 114
s-67 46 -110 46s-80 -15 -109 -46c-30 -31 -45 -69 -45 -114v0c0 -44 15 -82 45 -113zM709 416v0c-36 0 -67 -10 -94 -30s-46 -47 -57 -80v0h299c-9 35 -26 62 -52 81c-27 19 -59 29 -96 29z" />
    <glyph glyph-name="Racute" unicode="&#x154;" horiz-adv-x="584" 
d="M165 0h-109v730h227c76 0 138 -23 186 -68s72 -102 72 -170v0c0 -51 -14 -96 -41 -137c-28 -41 -67 -69 -117 -84v0l174 -271h-125l-220 348h59c51 0 90 15 119 44c28 29 42 63 42 100v0c0 42 -14 75 -41 100s-67 37 -119 37v0h-107v-629zM295 784h-82l116 166h114z" />
    <glyph glyph-name="racute" unicode="&#x155;" horiz-adv-x="390" 
d="M159 0h-108v500h107v-77c27 51 73 77 138 77v0h59v-102h-75c-43 0 -74 -12 -93 -35c-19 -24 -28 -62 -28 -115v0v-248zM245 554h-82l116 166h114z" />
    <glyph glyph-name="uni0156" unicode="&#x156;" horiz-adv-x="584" 
d="M165 0h-109v730h227c76 0 138 -23 186 -68s72 -102 72 -170v0c0 -51 -14 -96 -41 -137c-28 -41 -67 -69 -117 -84v0l174 -271h-125l-220 348h59c51 0 90 15 119 44c28 29 42 63 42 100v0c0 42 -14 75 -41 100s-67 37 -119 37v0h-107v-629zM348 -52l-65 -204h-69l38 204
h96z" />
    <glyph glyph-name="uni0157" unicode="&#x157;" horiz-adv-x="390" 
d="M159 0h-108v500h107v-77c27 51 73 77 138 77v0h59v-102h-75c-43 0 -74 -12 -93 -35c-19 -24 -28 -62 -28 -115v0v-248zM160 -47l-65 -204h-69l38 204h96z" />
    <glyph glyph-name="Rcaron" unicode="&#x158;" horiz-adv-x="584" 
d="M165 0h-109v730h227c76 0 138 -23 186 -68s72 -102 72 -170v0c0 -51 -14 -96 -41 -137c-28 -41 -67 -69 -117 -84v0l174 -271h-125l-220 348h59c51 0 90 15 119 44c28 29 42 63 42 100v0c0 42 -14 75 -41 100s-67 37 -119 37v0h-107v-629zM308 784h-75l-119 166h92
l64 -94l66 94h91z" />
    <glyph glyph-name="rcaron" unicode="&#x159;" horiz-adv-x="390" 
d="M159 0h-108v500h107v-77c27 51 73 77 138 77v0h59v-102h-75c-43 0 -74 -12 -93 -35c-19 -24 -28 -62 -28 -115v0v-248zM237 554h-75l-119 166h92l64 -94l66 94h91z" />
    <glyph glyph-name="Sacute" unicode="&#x15a;" horiz-adv-x="563" 
d="M313 784h-82l116 166h114zM285 -10v0c-113 0 -203 44 -272 133v0l96 75c44 -71 102 -106 175 -106v0c39 0 71 11 96 34c24 22 36 50 36 83v0c0 15 -3 28 -10 40s-15 22 -22 29c-8 7 -21 15 -39 23s-32 14 -42 18c-10 3 -27 9 -51 16v0c-25 8 -45 15 -60 21
c-16 6 -34 15 -54 27c-21 11 -37 24 -48 37c-12 13 -22 30 -31 51s-13 44 -13 70v0c0 56 22 103 67 142c45 38 100 57 167 57v0c95 0 174 -36 236 -108v0l-89 -66c-33 52 -82 78 -147 78v0c-37 0 -66 -9 -88 -28c-23 -19 -34 -44 -34 -73v0c0 -13 3 -26 10 -37
s14 -20 21 -27s20 -14 39 -22c19 -9 32 -14 41 -17c8 -3 25 -9 50 -18v0c31 -11 57 -20 77 -29c19 -9 41 -22 64 -38c23 -17 40 -37 51 -61c11 -25 17 -53 17 -85v0c0 -59 -22 -110 -67 -153c-45 -44 -103 -66 -176 -66z" />
    <glyph glyph-name="sacute" unicode="&#x15b;" horiz-adv-x="471" 
d="M240 554h-82l116 166h114zM235 -10v0c-102 0 -175 39 -219 116v0l96 50c29 -49 71 -73 128 -73v0c29 0 51 6 67 19s24 28 24 47v0c0 25 -36 44 -109 59v0c-5 1 -9 2 -12 3v0c-20 4 -37 8 -51 13c-14 4 -29 10 -46 18c-17 7 -30 16 -40 26s-18 23 -25 39
c-7 15 -11 33 -11 53v0c0 41 18 77 54 107s82 45 139 44v0c92 0 159 -32 201 -97v0l-89 -49c-25 38 -62 57 -112 57v0c-27 0 -48 -6 -63 -17c-15 -12 -23 -26 -23 -43v0c0 -9 2 -16 7 -22s14 -11 27 -16s24 -9 34 -12s27 -7 50 -12v0c25 -5 46 -11 63 -16
c17 -6 35 -14 54 -25s34 -26 44 -44c9 -18 14 -39 14 -64v0c0 -40 -17 -77 -52 -111s-85 -51 -150 -50z" />
    <glyph glyph-name="Scircumflex" unicode="&#x15c;" horiz-adv-x="563" 
d="M285 -10v0c-113 0 -203 44 -272 133v0l96 75c44 -71 102 -106 175 -106v0c39 0 71 11 96 34c24 22 36 50 36 83v0c0 15 -3 28 -10 40s-15 22 -22 29c-8 7 -21 15 -39 23s-32 14 -42 18c-10 3 -27 9 -51 16v0c-25 8 -45 15 -60 21c-16 6 -34 15 -54 27
c-21 11 -37 24 -48 37c-12 13 -22 30 -31 51s-13 44 -13 70v0c0 56 22 103 67 142c45 38 100 57 167 57v0c95 0 174 -36 236 -108v0l-89 -66c-33 52 -82 78 -147 78v0c-37 0 -66 -9 -88 -28c-23 -19 -34 -44 -34 -73v0c0 -13 3 -26 10 -37s14 -20 21 -27s20 -14 39 -22
c19 -9 32 -14 41 -17c8 -3 25 -9 50 -18v0c31 -11 57 -20 77 -29c19 -9 41 -22 64 -38c23 -17 40 -37 51 -61c11 -25 17 -53 17 -85v0c0 -59 -22 -110 -67 -153c-45 -44 -103 -66 -176 -66zM216 784h-92l119 166h75l119 -166h-91l-66 94z" />
    <glyph glyph-name="scircumflex" unicode="&#x15d;" horiz-adv-x="471" 
d="M235 -10v0c-102 0 -175 39 -219 116v0l96 50c29 -49 71 -73 128 -73v0c29 0 51 6 67 19s24 28 24 47v0c0 25 -36 44 -109 59v0c-5 1 -9 2 -12 3v0c-20 4 -37 8 -51 13c-14 4 -29 10 -46 18c-17 7 -30 16 -40 26s-18 23 -25 39c-7 15 -11 33 -11 53v0c0 41 18 77 54 107
s82 45 139 44v0c92 0 159 -32 201 -97v0l-89 -49c-25 38 -62 57 -112 57v0c-27 0 -48 -6 -63 -17c-15 -12 -23 -26 -23 -43v0c0 -9 2 -16 7 -22s14 -11 27 -16s24 -9 34 -12s27 -7 50 -12v0c25 -5 46 -11 63 -16c17 -6 35 -14 54 -25s34 -26 44 -44c9 -18 14 -39 14 -64v0
c0 -40 -17 -77 -52 -111s-85 -51 -150 -50zM146 554h-92l119 166h75l119 -166h-91l-66 94z" />
    <glyph glyph-name="Scedilla" unicode="&#x15e;" horiz-adv-x="563" 
d="M279 -237v0c-55 0 -103 19 -144 57v0l69 42c29 -23 56 -34 81 -34v0c17 0 31 3 43 10s18 15 18 25v0c0 21 -21 32 -64 32v0h-46v98c-91 11 -165 54 -223 130v0l96 75c44 -71 102 -106 175 -106v0c39 0 71 11 96 34c24 22 36 50 36 83v0c0 15 -3 28 -10 40s-15 22 -22 29
c-8 7 -21 15 -39 23s-32 14 -42 18c-10 3 -27 9 -51 16v0c-25 8 -45 15 -60 21c-16 6 -34 15 -54 27c-21 11 -37 24 -48 37c-12 13 -22 30 -31 51s-13 44 -13 70v0c0 56 22 103 67 142c45 38 100 57 167 57v0c95 0 174 -36 236 -108v0l-89 -66c-33 52 -82 78 -147 78v0
c-37 0 -66 -9 -88 -28c-23 -19 -34 -44 -34 -73v0c0 -13 3 -26 10 -37s14 -20 21 -27s20 -14 39 -22c19 -9 32 -14 41 -17c8 -3 25 -9 50 -18v0c31 -11 57 -20 77 -29c19 -9 41 -22 64 -38c23 -17 40 -37 51 -61c11 -25 17 -53 17 -85v0c0 -55 -20 -104 -59 -146
c-40 -42 -93 -66 -158 -71v0v-45c35 1 64 -6 85 -21s32 -35 32 -59v0c0 -30 -14 -55 -43 -74c-29 -20 -65 -30 -106 -30z" />
    <glyph glyph-name="scedilla" unicode="&#x15f;" horiz-adv-x="471" 
d="M213 -237v0c-55 0 -103 19 -144 57v0l69 42c29 -23 56 -34 81 -34v0c17 0 31 3 43 10s18 15 18 25v0c0 21 -21 32 -64 32v0h-46v101c-70 14 -121 51 -154 110v0l96 50c29 -49 71 -73 128 -73v0c29 0 51 6 67 19s24 28 24 47v0c0 25 -36 44 -109 59v0c-5 1 -9 2 -12 3v0
c-20 4 -37 8 -51 13c-14 4 -29 10 -46 18c-17 7 -30 16 -40 26s-18 23 -25 39c-7 15 -11 33 -11 53v0c0 41 18 77 54 107s82 45 139 44v0c92 0 159 -32 201 -97v0l-89 -49c-25 38 -62 57 -112 57v0c-27 0 -48 -6 -63 -17c-15 -12 -23 -26 -23 -43v0c0 -9 2 -16 7 -22
s14 -11 27 -16s24 -9 34 -12s27 -7 50 -12v0c25 -5 46 -11 63 -16c17 -6 35 -14 54 -25s34 -26 44 -44c9 -18 14 -39 14 -64v0c0 -39 -16 -75 -49 -108s-81 -51 -143 -53v0v-43c35 1 64 -6 85 -21s32 -35 32 -59v0c0 -30 -14 -55 -43 -74c-29 -20 -65 -30 -106 -30z" />
    <glyph glyph-name="Scaron" unicode="&#x160;" horiz-adv-x="563" 
d="M285 -10v0c-113 0 -203 44 -272 133v0l96 75c44 -71 102 -106 175 -106v0c39 0 71 11 96 34c24 22 36 50 36 83v0c0 15 -3 28 -10 40s-15 22 -22 29c-8 7 -21 15 -39 23s-32 14 -42 18c-10 3 -27 9 -51 16v0c-25 8 -45 15 -60 21c-16 6 -34 15 -54 27
c-21 11 -37 24 -48 37c-12 13 -22 30 -31 51s-13 44 -13 70v0c0 56 22 103 67 142c45 38 100 57 167 57v0c95 0 174 -36 236 -108v0l-89 -66c-33 52 -82 78 -147 78v0c-37 0 -66 -9 -88 -28c-23 -19 -34 -44 -34 -73v0c0 -13 3 -26 10 -37s14 -20 21 -27s20 -14 39 -22
c19 -9 32 -14 41 -17c8 -3 25 -9 50 -18v0c31 -11 57 -20 77 -29c19 -9 41 -22 64 -38c23 -17 40 -37 51 -61c11 -25 17 -53 17 -85v0c0 -59 -22 -110 -67 -153c-45 -44 -103 -66 -176 -66zM322 784h-75l-119 166h92l64 -94l66 94h91z" />
    <glyph glyph-name="scaron" unicode="&#x161;" horiz-adv-x="471" 
d="M235 -10v0c-102 0 -175 39 -219 116v0l96 50c29 -49 71 -73 128 -73v0c29 0 51 6 67 19s24 28 24 47v0c0 25 -36 44 -109 59v0c-5 1 -9 2 -12 3v0c-20 4 -37 8 -51 13c-14 4 -29 10 -46 18c-17 7 -30 16 -40 26s-18 23 -25 39c-7 15 -11 33 -11 53v0c0 41 18 77 54 107
s82 45 139 44v0c92 0 159 -32 201 -97v0l-89 -49c-25 38 -62 57 -112 57v0c-27 0 -48 -6 -63 -17c-15 -12 -23 -26 -23 -43v0c0 -9 2 -16 7 -22s14 -11 27 -16s24 -9 34 -12s27 -7 50 -12v0c25 -5 46 -11 63 -16c17 -6 35 -14 54 -25s34 -26 44 -44c9 -18 14 -39 14 -64v0
c0 -40 -17 -77 -52 -111s-85 -51 -150 -50zM250 554h-75l-119 166h92l64 -94l66 94h91z" />
    <glyph glyph-name="uni0162" unicode="&#x162;" horiz-adv-x="603" 
d="M350 -52l-65 -204h-69l38 204h96zM357 0h-108v628h-207v102h522v-102h-207v-628z" />
    <glyph glyph-name="uni0163" unicode="&#x163;" horiz-adv-x="367" 
d="M115 404h-85v96h85v118l108 59v-177h106v-96h-106v-199c0 -45 6 -74 19 -86c12 -12 41 -18 87 -18v0v-101h-16c-76 0 -128 15 -156 44s-42 82 -42 160v0v200zM252 -47l-65 -204h-69l38 204h96z" />
    <glyph glyph-name="Tcaron" unicode="&#x164;" horiz-adv-x="603" 
d="M357 0h-108v628h-207v102h522v-102h-207v-628zM335 784h-75l-119 166h92l64 -94l66 94h91z" />
    <glyph glyph-name="tcaron" unicode="&#x165;" horiz-adv-x="367" 
d="M115 404h-85v96h85v118l108 59v-177h106v-96h-106v-199c0 -45 6 -74 19 -86c12 -12 41 -18 87 -18v0v-101h-16c-76 0 -128 15 -156 44s-42 82 -42 160v0v200zM344 561h-69l32 177h91z" />
    <glyph glyph-name="Tbar" unicode="&#x166;" horiz-adv-x="603" 
d="M249 338h-110v103h110v187h-207v102h522v-102h-207v-187h107v-103h-107v-338h-108v338z" />
    <glyph glyph-name="tbar" unicode="&#x167;" horiz-adv-x="367" 
d="M115 410h-85v90h85v118l108 59v-177h106v-90h-106v-105h104v-88h-104v-15c0 -45 6 -74 19 -86c12 -12 41 -18 87 -18v0v-98h-16c-76 0 -128 15 -156 44s-42 82 -42 160v0v13h-78v88h78v105z" />
    <glyph glyph-name="Utilde" unicode="&#x168;" horiz-adv-x="620" 
d="M310 -10v0c-75 0 -137 23 -184 70c-48 47 -72 109 -72 186v0v484h109v-491c0 -41 14 -75 42 -104s63 -43 104 -43v0c42 0 77 14 106 43s43 63 43 104v0v491h108v-484c0 -77 -24 -139 -72 -186s-109 -70 -184 -70zM206 784h-71c0 39 9 70 28 93s43 35 74 35v0
c23 0 50 -9 79 -26v0c27 -17 46 -26 57 -26v0c22 0 33 16 33 48v0h71c0 -40 -9 -71 -26 -94c-18 -23 -44 -34 -77 -34v0c-23 0 -52 11 -89 32v0c-21 13 -37 19 -48 19v0c-21 0 -31 -16 -31 -47v0z" />
    <glyph glyph-name="utilde" unicode="&#x169;" 
d="M255 -10v0c-65 0 -116 19 -151 58c-36 39 -54 92 -54 161v0v291h109v-282c0 -42 10 -75 31 -98c21 -24 51 -36 90 -36v0c36 0 66 13 90 39c24 25 36 59 36 102v0v275h107v-500h-106v65c-37 -50 -87 -75 -152 -75zM180 554h-71c0 39 9 70 28 93s43 35 74 35v0
c23 0 50 -9 79 -26v0c27 -17 46 -26 57 -26v0c22 0 33 16 33 48v0h71c0 -40 -9 -71 -26 -94c-18 -23 -44 -34 -77 -34v0c-23 0 -52 11 -89 32v0c-21 13 -37 19 -48 19v0c-21 0 -31 -16 -31 -47v0z" />
    <glyph glyph-name="Umacron" unicode="&#x16a;" horiz-adv-x="620" 
d="M310 -10v0c-75 0 -137 23 -184 70c-48 47 -72 109 -72 186v0v484h109v-491c0 -41 14 -75 42 -104s63 -43 104 -43v0c42 0 77 14 106 43s43 63 43 104v0v491h108v-484c0 -77 -24 -139 -72 -186s-109 -70 -184 -70zM440 784h-264v77h264v-77z" />
    <glyph glyph-name="umacron" unicode="&#x16b;" 
d="M255 -10v0c-65 0 -116 19 -151 58c-36 39 -54 92 -54 161v0v291h109v-282c0 -42 10 -75 31 -98c21 -24 51 -36 90 -36v0c36 0 66 13 90 39c24 25 36 59 36 102v0v275h107v-500h-106v65c-37 -50 -87 -75 -152 -75zM412 554h-264v77h264v-77z" />
    <glyph glyph-name="Ubreve" unicode="&#x16c;" horiz-adv-x="620" 
d="M310 -10v0c-75 0 -137 23 -184 70c-48 47 -72 109 -72 186v0v484h109v-491c0 -41 14 -75 42 -104s63 -43 104 -43v0c42 0 77 14 106 43s43 63 43 104v0v491h108v-484c0 -77 -24 -139 -72 -186s-109 -70 -184 -70zM309 780v0c-53 0 -93 15 -120 46s-41 71 -41 120v0h76
c0 -65 28 -99 85 -100v0c27 1 48 10 63 27s22 42 22 73v0h77c0 -47 -15 -87 -44 -118c-30 -32 -69 -48 -118 -48z" />
    <glyph glyph-name="ubreve" unicode="&#x16d;" 
d="M255 -10v0c-65 0 -116 19 -151 58c-36 39 -54 92 -54 161v0v291h109v-282c0 -42 10 -75 31 -98c21 -24 51 -36 90 -36v0c36 0 66 13 90 39c24 25 36 59 36 102v0v275h107v-500h-106v65c-37 -50 -87 -75 -152 -75zM278 549v0c-53 0 -93 15 -120 46s-41 71 -41 120v0h76
c0 -65 28 -99 85 -100v0c27 1 48 10 63 27s22 42 22 73v0h77c0 -47 -15 -87 -44 -118c-30 -32 -69 -48 -118 -48z" />
    <glyph glyph-name="Uring" unicode="&#x16e;" horiz-adv-x="620" 
d="M306 755v0c-31 0 -57 11 -78 33c-22 22 -33 48 -33 79v0c0 31 11 58 33 80c21 22 47 33 78 33v0c32 0 59 -11 81 -33s33 -49 33 -80s-11 -58 -33 -79c-22 -22 -49 -33 -81 -33zM306 824v0c13 0 23 4 32 13c9 8 13 18 13 30s-4 23 -13 32s-19 13 -32 13v0
c-11 0 -21 -4 -30 -13s-13 -20 -13 -32s4 -22 13 -30c9 -9 19 -13 30 -13zM310 -10v0c-75 0 -137 23 -184 70c-48 47 -72 109 -72 186v0v484h109v-491c0 -41 14 -75 42 -104s63 -43 104 -43v0c42 0 77 14 106 43s43 63 43 104v0v491h108v-484c0 -77 -24 -139 -72 -186
s-109 -70 -184 -70z" />
    <glyph glyph-name="uring" unicode="&#x16f;" 
d="M255 -10v0c-65 0 -116 19 -151 58c-36 39 -54 92 -54 161v0v291h109v-282c0 -42 10 -75 31 -98c21 -24 51 -36 90 -36v0c36 0 66 13 90 39c24 25 36 59 36 102v0v275h107v-500h-106v65c-37 -50 -87 -75 -152 -75zM280 550v0c-31 0 -57 11 -78 33c-22 22 -33 48 -33 79v0
c0 31 11 58 33 80c21 22 47 33 78 33v0c32 0 59 -11 81 -33s33 -49 33 -80s-11 -58 -33 -79c-22 -22 -49 -33 -81 -33zM280 619v0c13 0 23 4 32 13c9 8 13 18 13 30s-4 23 -13 32s-19 13 -32 13v0c-11 0 -21 -4 -30 -13s-13 -20 -13 -32s4 -22 13 -30c9 -9 19 -13 30 -13z
" />
    <glyph glyph-name="Uhungarumlaut" unicode="&#x170;" horiz-adv-x="620" 
d="M310 -10v0c-75 0 -137 23 -184 70c-48 47 -72 109 -72 186v0v484h109v-491c0 -41 14 -75 42 -104s63 -43 104 -43v0c42 0 77 14 106 43s43 63 43 104v0v491h108v-484c0 -77 -24 -139 -72 -186s-109 -70 -184 -70zM251 784h-75l115 166h108zM406 784h-76l116 166h108z" />
    <glyph glyph-name="uhungarumlaut" unicode="&#x171;" 
d="M255 -10v0c-65 0 -116 19 -151 58c-36 39 -54 92 -54 161v0v291h109v-282c0 -42 10 -75 31 -98c21 -24 51 -36 90 -36v0c36 0 66 13 90 39c24 25 36 59 36 102v0v275h107v-500h-106v65c-37 -50 -87 -75 -152 -75zM389 554h-76l116 166h108zM234 554h-75l115 166h108z" />
    <glyph glyph-name="Uogonek" unicode="&#x172;" horiz-adv-x="620" 
d="M317 -219v0c-41 0 -74 10 -100 30s-39 45 -39 75v0c0 40 23 77 70 110v0c-59 12 -106 40 -141 85c-35 44 -53 99 -53 165v0v484h109v-491c0 -41 14 -75 42 -104s63 -43 104 -43v0c42 0 77 14 106 43s43 63 43 104v0v491h108v-484c0 -61 -15 -113 -46 -156
s-73 -72 -125 -88v0c-53 -33 -88 -57 -103 -70c-16 -14 -24 -28 -24 -42v0c0 -23 16 -35 49 -35v0c20 0 42 10 67 31v0l71 -48c-43 -38 -89 -57 -138 -57z" />
    <glyph glyph-name="uogonek" unicode="&#x173;" 
d="M458 -224v0c-39 0 -69 11 -92 32s-34 46 -35 77v0c-1 45 25 87 76 128v0v52c-37 -50 -87 -75 -152 -75v0c-65 0 -116 19 -151 58c-36 39 -54 92 -54 161v0v291h109v-282c0 -42 10 -75 31 -98c21 -24 51 -36 90 -36v0c36 0 66 13 90 39c24 25 36 59 36 102v0v275h107v-500
h-3c-61 -43 -92 -79 -92 -108v0c0 -12 4 -22 12 -29s18 -11 31 -11v0c19 0 38 10 57 29v0l62 -55c-38 -33 -79 -50 -122 -50z" />
    <glyph glyph-name="Wcircumflex" unicode="&#x174;" horiz-adv-x="1045" 
d="M346 0h-111l-210 730h114l155 -559l176 559h106l175 -560l159 560h110l-215 -730h-108l-175 561zM456 784h-92l119 166h75l119 -166h-91l-66 94z" />
    <glyph glyph-name="wcircumflex" unicode="&#x175;" horiz-adv-x="874" 
d="M302 0h-105l-166 501l109 -1l114 -355l131 355h106l129 -355l118 355h109l-174 -500h-103l-133 357zM373 554h-92l119 166h75l119 -166h-91l-66 94z" />
    <glyph glyph-name="Ycircumflex" unicode="&#x176;" horiz-adv-x="624" 
d="M366 0h-108v346l-237 384h120l171 -280l172 280h120l-238 -385v-345zM246 784h-92l119 166h75l119 -166h-91l-66 94z" />
    <glyph glyph-name="ycircumflex" unicode="&#x177;" horiz-adv-x="556" 
d="M231 -231h-110l107 257l-207 474h115l146 -347l138 347h113zM212 554h-92l119 166h75l119 -166h-91l-66 94z" />
    <glyph glyph-name="Ydieresis" unicode="&#x178;" horiz-adv-x="624" 
d="M366 0h-108v346l-237 384h120l171 -280l172 280h120l-238 -385v-345zM285 788h-107v138h107v-138zM446 788h-107v138h107v-138z" />
    <glyph glyph-name="Zacute" unicode="&#x179;" horiz-adv-x="578" 
d="M531 0h-483v100l355 527h-344v103h472v-99l-356 -527h356v-104zM319 784h-82l116 166h114z" />
    <glyph glyph-name="zacute" unicode="&#x17a;" horiz-adv-x="523" 
d="M483 0h-443v98l300 306h-293v96h432v-98l-300 -306h304v-96zM299 554h-82l116 166h114z" />
    <glyph glyph-name="Zdotaccent" unicode="&#x17b;" horiz-adv-x="578" 
d="M531 0h-483v100l355 527h-344v103h472v-99l-356 -527h356v-104zM348 788h-107v138h107v-138z" />
    <glyph glyph-name="zdotaccent" unicode="&#x17c;" horiz-adv-x="523" 
d="M483 0h-443v98l300 306h-293v96h432v-98l-300 -306h304v-96zM321 558h-107v138h107v-138z" />
    <glyph glyph-name="Zcaron" unicode="&#x17d;" horiz-adv-x="578" 
d="M531 0h-483v100l355 527h-344v103h472v-99l-356 -527h356v-104zM330 784h-75l-119 166h92l64 -94l66 94h91z" />
    <glyph glyph-name="zcaron" unicode="&#x17e;" horiz-adv-x="523" 
d="M483 0h-443v98l300 306h-293v96h432v-98l-300 -306h304v-96zM305 554h-75l-119 166h92l64 -94l66 94h91z" />
    <glyph glyph-name="florin" unicode="&#x192;" horiz-adv-x="588" 
d="M226 322h-147v96h176l33 107c22 76 52 129 90 160c37 30 87 45 150 45v0h9v-99c-41 0 -71 -8 -91 -23s-36 -44 -49 -87v0l-32 -103h154v-96h-183l-35 -116c-23 -77 -52 -131 -86 -161s-83 -45 -148 -45v0h-15v100c41 0 72 8 91 23s36 44 49 87v0z" />
    <glyph glyph-name="Aringacute" unicode="&#x1fa;" horiz-adv-x="696" 
d="M138 0h-114l253 688c-29 23 -44 53 -44 90v0c0 31 11 58 33 80c21 22 47 33 78 33v0c32 0 59 -11 81 -33s33 -49 33 -80v0c0 -36 -13 -65 -40 -86v0l254 -692h-113l-57 156h-308zM465 260l-117 321l-116 -321h233zM383 926h-82l116 166h114zM344 735v0c13 0 23 4 32 13
c9 8 13 18 13 30s-4 23 -13 32s-19 13 -32 13v0c-11 0 -21 -4 -30 -13s-13 -20 -13 -32s4 -22 13 -30c9 -9 19 -13 30 -13z" />
    <glyph glyph-name="aringacute" unicode="&#x1fb;" horiz-adv-x="607" 
d="M283 -10v0c-67 0 -125 24 -174 73c-50 48 -75 110 -75 187v0c0 77 25 140 74 188s108 72 176 72v0c33 0 64 -7 94 -20c29 -13 53 -32 72 -55v0v65h107v-500h-107v69c-19 -25 -44 -44 -73 -58c-30 -14 -61 -21 -94 -21zM298 88v0c45 0 83 16 113 48c30 31 45 70 45 115
s-15 84 -45 115s-68 47 -113 47v0c-45 0 -82 -16 -112 -47c-31 -31 -46 -70 -46 -115s15 -84 46 -115c30 -32 67 -48 112 -48zM295 547v0c-31 0 -57 11 -78 33c-22 22 -33 48 -33 79v0c0 31 11 58 33 80c21 22 47 33 78 33v0c32 0 59 -11 81 -33s33 -49 33 -80
s-11 -58 -33 -79c-22 -22 -49 -33 -81 -33zM333 803h-82l116 166h114zM295 616v0c13 0 23 4 32 13c9 8 13 18 13 30s-4 23 -13 32s-19 13 -32 13v0c-11 0 -21 -4 -30 -13s-13 -20 -13 -32s4 -22 13 -30c9 -9 19 -13 30 -13z" />
    <glyph glyph-name="AEacute" unicode="&#x1fc;" horiz-adv-x="1016" 
d="M159 0h-117l339 730h567v-103h-428l51 -209h377v-103h-352l51 -211h301v-104h-389l-37 154h-292zM498 254l-75 318l-147 -318h222zM609 784h-82l116 166h114z" />
    <glyph glyph-name="aeacute" unicode="&#x1fd;" horiz-adv-x="922" 
d="M635 -10v0c-95 0 -168 36 -217 107v0c-17 -31 -44 -56 -81 -76c-37 -21 -78 -31 -124 -31v0c-61 0 -106 13 -135 38c-30 25 -45 59 -46 102v0c0 44 15 78 44 102s71 43 124 56v0c9 2 21 5 36 9c15 3 26 6 35 8s19 5 31 8s21 7 28 10s14 7 21 11s12 9 15 14s4 11 4 18v0
c0 17 -9 32 -26 43c-18 11 -43 17 -75 17v0c-41 0 -72 -9 -93 -28c-22 -19 -33 -43 -33 -72v0v-3h-98v2c0 57 20 103 59 136s92 49 161 49v0c87 0 148 -25 181 -76v0c49 51 111 76 184 76v0c74 0 135 -24 184 -72c49 -49 73 -110 73 -184v0v-38h-414c7 -39 25 -71 54 -95
s65 -36 108 -36v0c33 0 63 9 89 26s46 39 59 67v0l90 -40c-21 -46 -53 -82 -94 -108c-42 -27 -90 -40 -144 -40zM218 79v0c39 0 74 13 104 40s47 53 52 78v0v33v14l-2 14c-7 -15 -47 -31 -121 -47v0c-39 -9 -68 -18 -85 -29c-18 -11 -27 -28 -27 -49v0c0 -36 26 -54 79 -54z
M630 416v0c-36 0 -67 -10 -94 -30s-45 -47 -56 -80v0h299c-9 35 -26 62 -52 81c-27 19 -59 29 -97 29zM492 554h-82l116 166h114z" />
    <glyph glyph-name="Oslashacute" unicode="&#x1fe;" horiz-adv-x="819" 
d="M186 0h-125l81 102c-71 73 -107 161 -107 263v0c0 103 37 192 110 265s161 110 264 110v0c67 0 132 -18 193 -53v0l34 43h126l-83 -105c70 -72 105 -159 105 -260v0c0 -103 -36 -192 -109 -265s-162 -110 -266 -110v0c-69 0 -132 17 -190 52v0zM144 365v0
c0 -68 22 -127 65 -178v0l327 415c-40 22 -82 33 -127 33v0c-74 0 -137 -26 -188 -79s-77 -116 -77 -191zM409 96v0c75 0 138 26 189 79c51 52 77 115 77 190v0c0 66 -21 124 -63 175v0l-327 -414c39 -20 80 -30 124 -30zM437 784h-82l116 166h114z" />
    <glyph glyph-name="oslashacute" unicode="&#x1ff;" horiz-adv-x="587" 
d="M293 -10v0c-45 0 -87 10 -125 31v0l-17 -21h-111l60 76c-44 49 -66 107 -66 174v0c0 73 25 134 76 185c50 50 111 75 183 75v0c45 0 86 -10 124 -31v0l17 21h111l-59 -75c45 -50 67 -108 67 -175v0c0 -73 -25 -134 -76 -184c-51 -51 -112 -76 -184 -76zM293 90v0
c43 0 80 16 110 47s45 69 45 113v0c0 35 -9 65 -28 92v0l-188 -240c18 -8 38 -12 61 -12zM139 250v0c0 -34 9 -64 26 -91v0l188 239c-18 8 -38 12 -60 12v0c-43 0 -80 -15 -109 -46c-30 -31 -45 -69 -45 -114zM327 554h-82l116 166h114z" />
    <glyph glyph-name="uni0218" unicode="&#x218;" horiz-adv-x="563" 
d="M334 -47l-65 -204h-69l38 204h96zM285 -10v0c-113 0 -203 44 -272 133v0l96 75c44 -71 102 -106 175 -106v0c39 0 71 11 96 34c24 22 36 50 36 83v0c0 15 -3 28 -10 40s-15 22 -22 29c-8 7 -21 15 -39 23s-32 14 -42 18c-10 3 -27 9 -51 16v0c-25 8 -45 15 -60 21
c-16 6 -34 15 -54 27c-21 11 -37 24 -48 37c-12 13 -22 30 -31 51s-13 44 -13 70v0c0 56 22 103 67 142c45 38 100 57 167 57v0c95 0 174 -36 236 -108v0l-89 -66c-33 52 -82 78 -147 78v0c-37 0 -66 -9 -88 -28c-23 -19 -34 -44 -34 -73v0c0 -13 3 -26 10 -37
s14 -20 21 -27s20 -14 39 -22c19 -9 32 -14 41 -17c8 -3 25 -9 50 -18v0c31 -11 57 -20 77 -29c19 -9 41 -22 64 -38c23 -17 40 -37 51 -61c11 -25 17 -53 17 -85v0c0 -59 -22 -110 -67 -153c-45 -44 -103 -66 -176 -66z" />
    <glyph glyph-name="uni0219" unicode="&#x219;" horiz-adv-x="471" 
d="M268 -50l-65 -204h-69l38 204h96zM235 -10v0c-102 0 -175 39 -219 116v0l96 50c29 -49 71 -73 128 -73v0c29 0 51 6 67 19s24 28 24 47v0c0 25 -36 44 -109 59v0c-5 1 -9 2 -12 3v0c-20 4 -37 8 -51 13c-14 4 -29 10 -46 18c-17 7 -30 16 -40 26s-18 23 -25 39
c-7 15 -11 33 -11 53v0c0 41 18 77 54 107s82 45 139 44v0c92 0 159 -32 201 -97v0l-89 -49c-25 38 -62 57 -112 57v0c-27 0 -48 -6 -63 -17c-15 -12 -23 -26 -23 -43v0c0 -9 2 -16 7 -22s14 -11 27 -16s24 -9 34 -12s27 -7 50 -12v0c25 -5 46 -11 63 -16
c17 -6 35 -14 54 -25s34 -26 44 -44c9 -18 14 -39 14 -64v0c0 -40 -17 -77 -52 -111s-85 -51 -150 -50z" />
    <glyph glyph-name="uni0237" unicode="&#x237;" horiz-adv-x="211" 
d="M-40 -230h-16v101c46 0 75 6 88 19c13 12 19 40 19 85v0v525h109v-526c0 -78 -14 -131 -43 -160s-81 -44 -157 -44v0z" />
  </font>
</defs>
</svg>
